<svg version="1.1" id="Layer_1" xmlns="http://www.w3.org/2000/svg" xmlns:xlink="http://www.w3.org/1999/xlink" x="0px" y="0px"
	 width="100%" viewBox="0 0 5000 5000" enable-background="new 0 0 5000 5000" xml:space="preserve">
<path fill="#C5957F" opacity="1.000000" stroke="none" 
	d="
M2900.000000,5004.000000 
	C1933.333374,5004.000000 968.666687,5004.000000 4.000000,5004.000000 
	C4.000000,3337.333252 4.000000,1670.666626 4.000000,4.000001 
	C1670.666626,4.000000 3337.333252,4.000000 5004.000000,4.000000 
	C5004.000000,1670.666626 5004.000000,3337.333252 5004.000000,5004.000000 
	C4303.333496,5004.000000 3602.666748,5004.000000 2900.000000,5004.000000 
M3646.550293,2230.000000 
	C3646.552002,2126.019775 3646.654053,2022.039551 3646.504395,1918.059692 
	C3646.446045,1877.420654 3646.813721,1836.806274 3644.251953,1796.157104 
	C3641.564941,1753.515503 3636.907227,1711.206299 3629.373047,1669.205444 
	C3609.916748,1560.740723 3573.906494,1458.059692 3521.863770,1360.895264 
	C3475.600586,1274.521118 3417.804443,1196.671143 3350.157715,1125.992554 
	C3324.323486,1099.000122 3296.497314,1074.162598 3267.791260,1050.257446 
	C3208.136963,1000.580444 3143.789795,958.059448 3074.809082,922.486816 
	C3015.367920,891.833618 2953.317627,867.684509 2889.228271,848.870728 
	C2812.817871,826.439941 2734.639160,813.283813 2655.181396,809.340332 
	C2607.300537,806.964111 2559.317139,807.220825 2511.361572,811.590271 
	C2456.147949,816.620911 2401.573975,824.981445 2347.793701,838.242126 
	C2254.047852,861.357178 2165.209961,896.904114 2081.278564,944.691467 
	C2017.322754,981.105164 1957.778809,1023.797607 1903.087402,1072.902588 
	C1858.429688,1112.998779 1816.761353,1156.141724 1779.409180,1203.330933 
	C1719.065308,1279.567139 1669.324951,1362.036011 1632.077026,1451.910767 
	C1578.333740,1581.586792 1550.808350,1716.424194 1551.776489,1857.024048 
	C1552.350220,1940.337524 1551.867310,2023.658325 1551.867065,2106.975830 
	C1551.865601,2548.225586 1551.864868,2989.475098 1551.881226,3430.724854 
	C1551.881592,3438.720459 1551.670044,3446.751465 1552.325806,3454.702637 
	C1553.129395,3464.443848 1557.600952,3468.995117 1567.590942,3469.921875 
	C1576.191528,3470.719971 1584.895752,3470.551270 1593.554199,3470.551758 
	C2260.094482,3470.575195 2926.634521,3470.573242 3593.174805,3470.572510 
	C3601.173340,3470.572510 3609.172363,3470.613525 3617.170166,3470.537842 
	C3621.165039,3470.500000 3625.191406,3470.514404 3629.145264,3470.029297 
	C3640.223877,3468.670166 3644.738281,3464.575684 3645.857666,3453.735107 
	C3646.676270,3445.808350 3646.530273,3437.764648 3646.530762,3429.773193 
	C3646.554688,3031.182129 3646.547852,2632.591064 3646.550293,2230.000000 
M1487.265869,4163.464844 
	C1448.363403,4149.023438 1411.037720,4131.385254 1378.101807,4105.868652 
	C1365.022705,4095.736084 1353.388428,4083.647705 1341.703491,4071.848633 
	C1336.744629,4066.841553 1331.765259,4061.020508 1332.205933,4052.664307 
	C1337.090576,4046.300537 1344.638062,4044.844727 1351.028931,4041.624512 
	C1387.989624,4023.001709 1419.892944,3998.629150 1441.609619,3962.577637 
	C1464.312256,3924.889893 1468.986694,3885.218018 1453.972900,3843.684570 
	C1444.731079,3818.118408 1429.220947,3796.469482 1409.301392,3778.277588 
	C1369.256714,3741.706299 1321.270874,3723.327881 1267.572266,3721.687744 
	C1218.319092,3720.183594 1168.987427,3721.174805 1119.690796,3721.289795 
	C1114.615356,3721.301758 1109.543457,3722.835449 1104.910278,3723.591064 
	C1100.200195,3733.010254 1101.545044,3741.799805 1101.540039,3750.315430 
	C1101.459839,3886.882324 1101.480225,4023.449219 1101.495239,4160.016113 
	C1101.495850,4165.343750 1101.367798,4170.700195 1101.877075,4175.987793 
	C1102.182617,4179.160645 1103.609131,4182.226562 1104.420166,4184.962891 
	C1123.284790,4189.030273 1142.218506,4188.624023 1155.834106,4184.007812 
	C1159.605469,4178.031250 1158.530518,4171.213867 1158.566284,4164.657227 
	C1158.700317,4140.009766 1158.599976,4115.360352 1158.644531,4090.711670 
	C1158.654175,4085.386230 1158.581787,4080.029053 1159.113525,4074.743408 
	C1159.883667,4067.088379 1162.978760,4063.963379 1170.122681,4062.795410 
	C1172.086670,4062.474121 1174.095215,4062.336426 1176.087280,4062.291748 
	C1203.382690,4061.680176 1230.684937,4061.293701 1257.971558,4060.416504 
	C1268.915039,4060.064697 1276.670044,4063.792725 1283.284302,4072.917725 
	C1305.883179,4104.096191 1334.509644,4128.621094 1367.937744,4147.798340 
	C1400.613770,4166.543945 1435.616699,4178.994629 1472.056885,4187.673340 
	C1503.877563,4195.252441 1536.243774,4198.661621 1568.874512,4201.143555 
	C1622.981079,4205.259277 1675.343018,4198.569824 1725.718628,4178.816895 
	C1743.585938,4171.811035 1760.258789,4161.722656 1777.332153,4152.765625 
	C1780.297729,4151.209473 1782.742432,4147.729004 1779.793701,4144.568848 
	C1777.825684,4142.459961 1774.064209,4140.615234 1771.373535,4140.932129 
	C1767.624390,4141.372559 1763.974487,4143.680176 1760.541870,4145.642578 
	C1693.357422,4184.056641 1621.456055,4193.421387 1546.159790,4179.513672 
	C1527.244263,4176.020020 1508.876099,4169.562500 1487.265869,4163.464844 
M3966.322998,4157.403320 
	C3966.324707,4023.428223 3966.328369,3889.453369 3966.320801,3755.478271 
	C3966.320312,3748.813721 3966.416748,3742.138916 3966.078857,3735.488770 
	C3965.913574,3732.232666 3965.238037,3728.868408 3964.033936,3725.856689 
	C3963.448730,3724.393799 3960.870605,3722.516357 3959.629395,3722.791016 
	C3957.393555,3723.285645 3953.958740,3725.023682 3953.708008,3726.655029 
	C3952.703125,3733.190674 3952.421631,3739.884277 3952.417725,3746.520020 
	C3952.353271,3857.166016 3952.373535,3967.812012 3952.365479,4078.458008 
	C3952.364990,4084.456299 3952.568115,4090.476074 3952.115479,4096.443359 
	C3951.895264,4099.347168 3950.379150,4102.152832 3948.894775,4106.703613 
	C3943.460449,4101.884766 3939.273926,4098.698730 3935.707764,4094.926758 
	C3907.781982,4065.385498 3879.895264,4035.806152 3852.149414,4006.095947 
	C3804.394287,3954.959473 3756.753418,3903.716553 3709.058594,3852.523682 
	C3675.898926,3816.932373 3642.746338,3781.334473 3609.547607,3745.779297 
	C3603.635254,3739.447754 3597.839355,3732.941650 3591.353760,3727.239502 
	C3588.054932,3724.339111 3583.535400,3722.139160 3579.227295,3721.223145 
	C3570.970459,3719.467773 3566.483643,3723.176025 3565.811279,3731.576416 
	C3565.333984,3737.542480 3565.439209,3743.562012 3565.437744,3749.557861 
	C3565.416992,3826.210205 3565.423584,3902.862549 3565.423828,3979.514893 
	C3565.423828,4040.170166 3565.387695,4100.825684 3565.477539,4161.480957 
	C3565.487305,4168.112305 3565.840820,4174.803223 3566.877686,4181.333008 
	C3567.160645,4183.116211 3570.510498,4185.598145 3572.455078,4185.600098 
	C3574.424805,4185.602051 3577.870605,4183.134766 3578.111084,4181.395020 
	C3579.107178,4174.182129 3579.464600,4166.836426 3579.470459,4159.538574 
	C3579.553711,4054.891602 3579.538330,3950.244385 3579.560547,3845.597412 
	C3579.562012,3838.266113 3579.577148,3830.932617 3579.772705,3823.604980 
	C3579.858398,3820.382324 3579.810791,3816.825684 3585.033447,3815.715820 
	C3592.112305,3819.882812 3597.293701,3826.945801 3603.121094,3833.208252 
	C3648.512695,3881.993164 3693.753174,3930.918701 3739.144043,3979.704346 
	C3765.018555,4007.514404 3791.179199,4035.058350 3817.041016,4062.879883 
	C3841.085449,4088.746094 3864.831055,4114.890137 3888.854248,4140.775879 
	C3900.641357,4153.477051 3912.570312,4166.062012 3924.846436,4178.285645 
	C3928.465576,4181.889648 3933.187988,4185.656250 3937.939209,4186.570312 
	C3946.226318,4188.165527 3955.071045,4189.104004 3963.541748,4184.711426 
	C3967.414795,4177.178223 3965.935059,4169.056641 3966.322998,4157.403320 
M4155.108887,3821.994385 
	C4163.276855,3805.143066 4172.470215,3788.913818 4185.644531,3775.395752 
	C4228.510254,3731.411133 4281.193848,3719.625732 4339.793945,3730.264893 
	C4378.237305,3737.244873 4410.549805,3756.811768 4438.695312,3783.562500 
	C4444.411133,3788.995361 4449.139160,3795.659180 4456.960449,3799.342041 
	C4464.836426,3796.633545 4470.951660,3792.395996 4474.359375,3784.010742 
	C4472.090820,3781.026123 4470.382812,3778.168457 4468.094238,3775.894287 
	C4463.376465,3771.205322 4458.561523,3766.568359 4453.416992,3762.361816 
	C4397.638672,3716.755371 4333.761719,3701.530762 4264.065430,3716.815918 
	C4180.527344,3735.136475 4122.539062,3785.012207 4092.782715,3865.971924 
	C4081.181396,3897.536377 4076.170166,3930.352783 4076.562988,3964.019043 
	C4077.272705,4024.850830 4099.060547,4077.286621 4140.784180,4121.020020 
	C4180.395020,4162.539551 4229.329590,4186.368164 4286.497559,4192.855469 
	C4343.084961,4199.278320 4393.964844,4188.638672 4433.443848,4143.728027 
	C4435.374023,4141.532227 4438.451172,4140.343750 4441.681152,4138.238281 
	C4449.315918,4153.006836 4440.622559,4168.920898 4449.756348,4183.272949 
	C4466.110840,4184.282715 4483.077148,4185.890137 4499.123535,4182.169922 
	C4504.206055,4175.943359 4503.234375,4169.740723 4503.289551,4163.855957 
	C4503.446777,4147.201660 4503.358398,4130.545410 4503.358887,4113.889648 
	C4503.360352,4071.917480 4503.439941,4029.945068 4503.274902,3987.973389 
	C4503.247070,3980.850830 4504.991211,3973.208252 4499.057617,3966.354492 
	C4497.063477,3965.858398 4494.538086,3964.689453 4492.009277,3964.681396 
	C4446.708984,3964.540527 4401.408203,3964.513672 4356.107422,3964.580811 
	C4353.567871,3964.584473 4351.028809,3965.608398 4348.928711,3966.062500 
	C4346.442871,3971.297852 4348.043457,3975.126465 4352.335449,3976.363770 
	C4357.346680,3977.808350 4362.799805,3978.122803 4368.070801,3978.187256 
	C4385.390137,3978.399658 4402.714355,3978.201172 4420.035156,3978.328125 
	C4425.344727,3978.367188 4430.694824,3978.630371 4435.942871,3979.375488 
	C4440.199219,3979.979980 4443.230469,3982.832520 4444.010254,3987.149658 
	C4444.715332,3991.055176 4445.017578,3995.083984 4445.016113,3999.058594 
	C4445.002930,4033.035889 4444.716797,4067.014160 4444.886230,4100.990234 
	C4444.938965,4111.543457 4441.388184,4120.382812 4435.358398,4128.742188 
	C4422.058594,4147.181641 4404.092773,4159.713867 4383.499023,4168.115234 
	C4339.969238,4185.873047 4297.330078,4181.709961 4256.336426,4159.863770 
	C4216.900391,4138.846680 4188.249512,4106.905762 4167.033203,4068.083984 
	C4146.577637,4030.654785 4135.798828,3990.593750 4133.843262,3947.833496 
	C4131.896484,3905.265381 4136.863770,3864.119873 4155.108887,3821.994385 
M929.479614,4111.440430 
	C945.940308,4092.863281 959.634705,4072.465576 969.933411,4049.845215 
	C988.014771,4010.131348 995.971497,3968.614990 989.948486,3925.200684 
	C980.193665,3854.887451 945.827332,3798.734131 888.853210,3756.892822 
	C833.197388,3716.020508 770.774292,3702.097412 703.252747,3716.749268 
	C646.423950,3729.081055 600.340271,3759.698730 565.318298,3806.165527 
	C516.219238,3871.310547 503.196289,3943.784668 525.569763,4021.810059 
	C540.960449,4075.482910 572.717590,4118.915527 618.603271,4150.633789 
	C692.725403,4201.870117 771.340088,4209.036621 853.271240,4170.162109 
	C881.956055,4156.551270 906.075317,4136.716309 929.479614,4111.440430 
M1658.001221,4083.885742 
	C1708.612061,4083.885986 1759.222778,4083.876221 1809.833618,4083.900391 
	C1815.824585,4083.903320 1821.818237,4084.015381 1827.805908,4084.216309 
	C1833.634521,4084.411865 1837.922607,4086.971191 1840.189209,4092.593506 
	C1842.678833,4098.768066 1845.339966,4104.873047 1847.875000,4111.029785 
	C1856.746948,4132.579590 1865.760498,4154.072754 1874.368164,4175.727539 
	C1877.460449,4183.506348 1882.286865,4187.491699 1890.859863,4187.280762 
	C1903.503906,4186.970215 1916.161865,4187.236816 1928.807983,4186.974609 
	C1931.221313,4186.924805 1933.607544,4185.563477 1936.218750,4184.739746 
	C1937.424683,4176.937500 1933.730347,4171.125000 1931.255371,4165.143555 
	C1915.217773,4126.383301 1898.980957,4087.705566 1882.912231,4048.958008 
	C1840.827271,3947.475586 1798.801147,3845.968506 1756.724731,3744.482422 
	C1754.685669,3739.564453 1752.413086,3734.742676 1750.213257,3729.892334 
	C1747.831787,3724.641602 1744.019653,3721.156738 1738.015503,3721.106689 
	C1726.037598,3721.006836 1714.056274,3721.019775 1702.079590,3721.200195 
	C1697.759155,3721.265381 1694.457153,3723.653809 1692.626221,3727.520752 
	C1689.493286,3734.137207 1686.447754,3740.807617 1683.687988,3747.586426 
	C1635.733154,3865.375732 1587.823242,3983.183105 1539.921265,4100.993652 
	C1536.912476,4108.393555 1533.734741,4115.749512 1531.261597,4123.330566 
	C1530.126465,4126.809082 1530.509277,4130.783691 1530.231689,4134.192871 
	C1550.501465,4141.598145 1552.622314,4140.789551 1560.057373,4123.310547 
	C1563.184814,4115.958496 1565.951416,4108.448242 1569.216064,4101.159668 
	C1571.623169,4095.785156 1574.572144,4090.653320 1577.723022,4084.555420 
	C1603.519043,4083.196045 1628.778809,4084.190186 1658.001221,4083.885742 
M2931.488770,3729.859863 
	C2928.782471,3723.673828 2923.991943,3720.797363 2917.304443,3720.839844 
	C2903.978027,3720.924561 2890.648438,3720.838135 2877.328613,3721.163574 
	C2874.979736,3721.220947 2872.671631,3722.937500 2870.621338,3723.774902 
	C2869.281250,3731.782227 2872.799561,3737.657715 2875.150879,3743.741699 
	C2886.924316,3774.203125 2898.806396,3804.622803 2910.647705,3835.058105 
	C2953.903809,3946.237793 2997.145752,4057.422852 3040.448730,4168.583984 
	C3042.842773,4174.729004 3044.506348,4181.393555 3051.840332,4186.775391 
	C3060.187988,4186.991699 3070.119629,4187.485840 3080.049805,4187.459961 
	C3104.433838,4187.395996 3103.779053,4189.146973 3113.211182,4164.965820 
	C3148.571289,4074.311523 3184.095947,3983.722168 3219.515625,3893.091553 
	C3239.165771,3842.810303 3258.763184,3792.508789 3278.280273,3742.175781 
	C3280.186523,3737.259521 3281.593506,3732.112549 3282.780273,3726.968262 
	C3283.455566,3724.041260 3278.460205,3720.677734 3275.693115,3722.171387 
	C3273.451660,3723.381592 3270.794678,3724.883789 3269.708984,3726.976318 
	C3266.342773,3733.465088 3263.368652,3740.192139 3260.717529,3747.011719 
	C3216.041504,3861.930664 3171.439697,3976.878662 3126.816650,4091.818115 
	C3120.303955,4108.592773 3113.826660,4125.381348 3107.191895,4142.107910 
	C3105.769531,4145.693359 3104.448242,4149.775879 3099.384033,4149.790527 
	C3098.317139,4148.991211 3096.752930,4148.441406 3096.354004,4147.432129 
	C3041.761230,4009.215088 2987.252930,3870.964844 2931.488770,3729.859863 
M2396.202148,4006.000000 
	C2396.202148,3925.419922 2396.207031,3844.839600 2396.195801,3764.259521 
	C2396.194580,3754.270996 2396.329346,3744.273926 2395.951416,3734.298096 
	C2395.809082,3730.541504 2394.390137,3726.833008 2393.514404,3722.929443 
	C2378.101807,3719.088623 2363.522705,3720.499268 2349.018799,3721.237061 
	C2344.635498,3721.459717 2341.498779,3724.387207 2341.101807,3728.863770 
	C2340.514648,3735.480469 2340.333008,3742.151123 2340.331055,3748.798828 
	C2340.289307,3885.984863 2340.294189,4023.170898 2340.306641,4160.356934 
	C2340.307129,4165.682617 2340.200439,4171.030762 2340.632080,4176.328613 
	C2341.263916,4184.083008 2343.986084,4186.579102 2352.033447,4187.287109 
	C2355.342529,4187.578613 2358.687256,4187.528809 2362.015625,4187.529297 
	C2443.927490,4187.540039 2525.839600,4187.566406 2607.751465,4187.463867 
	C2613.005859,4187.457031 2618.425781,4187.037109 2623.458008,4185.668457 
	C2627.156250,4184.662598 2630.506592,4181.883789 2628.519043,4175.844238 
	C2621.589355,4172.314453 2613.515137,4173.584961 2605.730713,4173.572754 
	C2543.797119,4173.474121 2481.863525,4173.587891 2419.930176,4173.473145 
	C2397.052734,4173.430664 2396.305420,4172.659668 2396.245117,4149.849609 
	C2396.121582,4103.232910 2396.204834,4056.616455 2396.202148,4006.000000 
M3434.780518,3942.000000 
	C3434.781738,3891.343506 3434.786865,3840.687256 3434.782471,3790.030762 
	C3434.781006,3772.700928 3434.812256,3755.370850 3434.706787,3738.041504 
	C3434.674561,3732.764160 3435.071289,3727.265381 3430.203125,3722.566406 
	C3420.447754,3719.138184 3409.706543,3720.808105 3399.166260,3720.784668 
	C3377.486816,3720.736572 3376.771484,3721.429932 3376.758545,3743.284180 
	C3376.674072,3883.922607 3376.697754,4024.560791 3376.725830,4165.199219 
	C3376.726807,4169.853027 3376.885742,4174.540039 3377.460938,4179.150391 
	C3378.015869,4183.599609 3381.011719,4186.573242 3385.407715,4186.797852 
	C3400.602783,4187.574707 3415.860352,4188.990234 3430.438477,4185.717773 
	C3436.554199,4178.055176 3434.683594,4169.750000 3434.698486,4161.956543 
	C3434.836914,4089.970947 3434.777588,4017.985596 3434.780518,3942.000000 
M2775.744141,3818.000000 
	C2775.739014,3792.047363 2775.820801,3766.093994 2775.661621,3740.142334 
	C2775.625977,3734.332520 2776.885498,3728.024414 2771.081299,3722.553467 
	C2758.160156,3718.972168 2744.200928,3720.919189 2730.370361,3721.245361 
	C2727.350342,3721.316406 2724.376221,3723.315674 2720.343262,3724.811768 
	C2720.052979,3733.723389 2719.534912,3742.282471 2719.531738,3750.841553 
	C2719.479492,3886.594482 2719.491943,4022.347168 2719.499268,4158.100098 
	C2719.499512,4163.422852 2719.271973,4168.776367 2719.765625,4174.058105 
	C2720.116211,4177.811035 2721.502686,4181.468262 2722.440186,4185.221680 
	C2737.172607,4189.126953 2751.135254,4187.274902 2764.968262,4187.020020 
	C2767.989014,4186.963867 2770.973389,4184.936035 2775.736328,4183.158691 
	C2775.751709,4062.711182 2775.742432,3942.355713 2775.744141,3818.000000 
z"/>
<path fill="#EED7CA" opacity="1.000000" stroke="none" 
	d="
M3646.547363,2232.000000 
	C3646.547852,2632.591064 3646.554688,3031.182129 3646.530762,3429.773193 
	C3646.530273,3437.764648 3646.676270,3445.808350 3645.857666,3453.735107 
	C3644.738281,3464.575684 3640.223877,3468.670166 3629.145264,3470.029297 
	C3625.191406,3470.514404 3621.165039,3470.500000 3617.170166,3470.537842 
	C3609.172363,3470.613525 3601.173340,3470.572510 3593.174805,3470.572510 
	C2926.634521,3470.573242 2260.094482,3470.575195 1593.554199,3470.551758 
	C1584.895752,3470.551270 1576.191528,3470.719971 1567.590942,3469.921875 
	C1557.600952,3468.995117 1553.129395,3464.443848 1552.325806,3454.702637 
	C1551.670044,3446.751465 1551.881592,3438.720459 1551.881226,3430.724854 
	C1551.864868,2989.475098 1551.865601,2548.225586 1551.867065,2106.975830 
	C1551.867310,2023.658325 1552.350220,1940.337524 1551.776489,1857.024048 
	C1550.808350,1716.424194 1578.333740,1581.586792 1632.077026,1451.910767 
	C1669.324951,1362.036011 1719.065308,1279.567139 1779.409180,1203.330933 
	C1816.761353,1156.141724 1858.429688,1112.998779 1903.087402,1072.902588 
	C1957.778809,1023.797607 2017.322754,981.105164 2081.278564,944.691467 
	C2165.209961,896.904114 2254.047852,861.357178 2347.793701,838.242126 
	C2401.573975,824.981445 2456.147949,816.620911 2511.361572,811.590271 
	C2559.317139,807.220825 2607.300537,806.964111 2655.181396,809.340332 
	C2734.639160,813.283813 2812.817871,826.439941 2889.228271,848.870728 
	C2953.317627,867.684509 3015.367920,891.833618 3074.809082,922.486816 
	C3143.789795,958.059448 3208.136963,1000.580444 3267.791260,1050.257446 
	C3296.497314,1074.162598 3324.323486,1099.000122 3350.157715,1125.992554 
	C3417.804443,1196.671143 3475.600586,1274.521118 3521.863770,1360.895264 
	C3573.906494,1458.059692 3609.916748,1560.740723 3629.373047,1669.205444 
	C3636.907227,1711.206299 3641.564941,1753.515503 3644.251953,1796.157104 
	C3646.813721,1836.806274 3646.446045,1877.420654 3646.504395,1918.059692 
	C3646.654053,2022.039551 3646.552002,2126.019775 3646.547363,2232.000000 
M2750.000000,3444.447021 
	C3027.988037,3444.446533 3305.976074,3444.447510 3583.964111,3444.440674 
	C3591.296631,3444.440430 3598.640625,3444.582520 3605.956543,3444.211914 
	C3609.780518,3444.018555 3613.555176,3442.852295 3617.393066,3442.117676 
	C3621.939697,3431.699951 3620.281250,3421.593750 3620.282959,3411.794434 
	C3620.368164,2897.814697 3620.375732,2383.835205 3620.318115,1869.855469 
	C3620.314209,1836.546143 3620.015137,1803.294312 3617.003418,1769.998535 
	C3613.696533,1733.436279 3609.208008,1697.098145 3602.202637,1661.133057 
	C3581.787842,1556.324951 3545.998291,1457.046265 3494.407959,1363.431152 
	C3422.164307,1232.338257 3325.335693,1122.709473 3205.607178,1033.412598 
	C3109.032471,961.384766 3002.451416,908.929443 2886.880615,874.610962 
	C2790.947754,846.123901 2692.813477,833.606506 2593.014648,832.730652 
	C2579.058350,832.608215 2565.095703,834.658508 2551.120117,834.963013 
	C2501.655029,836.040833 2452.839111,842.657837 2404.359131,851.958557 
	C2289.339111,874.024841 2181.319336,914.856140 2080.548584,974.480713 
	C1973.915405,1037.573853 1881.565308,1117.348999 1803.601318,1213.727905 
	C1724.756714,1311.195557 1665.789062,1419.507202 1626.729614,1538.577515 
	C1592.797363,1642.017944 1576.530396,1748.403442 1576.493774,1857.154419 
	C1576.319214,2375.800537 1576.414307,2894.446533 1576.417358,3413.092773 
	C1576.417480,3418.425537 1576.115356,3423.791504 1576.606201,3429.081299 
	C1577.018799,3433.527832 1578.382568,3437.886230 1579.238159,3441.876953 
	C1582.281616,3442.791016 1584.175171,3443.857178 1586.069458,3443.858398 
	C1972.713013,3444.104492 2359.356445,3444.275146 2750.000000,3444.447021 
z"/>
<path fill="#EED7CA" opacity="1.000000" stroke="none" 
	d="
M1488.761230,4163.965820 
	C1508.876099,4169.562500 1527.244263,4176.020020 1546.159790,4179.513672 
	C1621.456055,4193.421387 1693.357422,4184.056641 1760.541870,4145.642578 
	C1763.974487,4143.680176 1767.624390,4141.372559 1771.373535,4140.932129 
	C1774.064209,4140.615234 1777.825684,4142.459961 1779.793701,4144.568848 
	C1782.742432,4147.729004 1780.297729,4151.209473 1777.332153,4152.765625 
	C1760.258789,4161.722656 1743.585938,4171.811035 1725.718628,4178.816895 
	C1675.343018,4198.569824 1622.981079,4205.259277 1568.874512,4201.143555 
	C1536.243774,4198.661621 1503.877563,4195.252441 1472.056885,4187.673340 
	C1435.616699,4178.994629 1400.613770,4166.543945 1367.937744,4147.798340 
	C1334.509644,4128.621094 1305.883179,4104.096191 1283.284302,4072.917725 
	C1276.670044,4063.792725 1268.915039,4060.064697 1257.971558,4060.416504 
	C1230.684937,4061.293701 1203.382690,4061.680176 1176.087280,4062.291748 
	C1174.095215,4062.336426 1172.086670,4062.474121 1170.122681,4062.795410 
	C1162.978760,4063.963379 1159.883667,4067.088379 1159.113525,4074.743408 
	C1158.581787,4080.029053 1158.654175,4085.386230 1158.644531,4090.711670 
	C1158.599976,4115.360352 1158.700317,4140.009766 1158.566284,4164.657227 
	C1158.530518,4171.213867 1159.605469,4178.031250 1155.834106,4184.007812 
	C1142.218506,4188.624023 1123.284790,4189.030273 1104.420166,4184.962891 
	C1103.609131,4182.226562 1102.182617,4179.160645 1101.877075,4175.987793 
	C1101.367798,4170.700195 1101.495850,4165.343750 1101.495239,4160.016113 
	C1101.480225,4023.449219 1101.459839,3886.882324 1101.540039,3750.315430 
	C1101.545044,3741.799805 1100.200195,3733.010254 1104.910278,3723.591064 
	C1109.543457,3722.835449 1114.615356,3721.301758 1119.690796,3721.289795 
	C1168.987427,3721.174805 1218.319092,3720.183594 1267.572266,3721.687744 
	C1321.270874,3723.327881 1369.256714,3741.706299 1409.301392,3778.277588 
	C1429.220947,3796.469482 1444.731079,3818.118408 1453.972900,3843.684570 
	C1468.986694,3885.218018 1464.312256,3924.889893 1441.609619,3962.577637 
	C1419.892944,3998.629150 1387.989624,4023.001709 1351.028931,4041.624512 
	C1344.638062,4044.844727 1337.090576,4046.300537 1332.205933,4052.664307 
	C1331.765259,4061.020508 1336.744629,4066.841553 1341.703491,4071.848633 
	C1353.388428,4083.647705 1365.022705,4095.736084 1378.101807,4105.868652 
	C1411.037720,4131.385254 1448.363403,4149.023438 1488.761230,4163.965820 
M1233.894531,3732.393311 
	C1216.569092,3732.394287 1199.243652,3732.368408 1181.918335,3732.414551 
	C1177.257812,3732.427002 1172.569580,3732.383301 1167.944214,3732.856445 
	C1161.214233,3733.544678 1158.206787,3736.279053 1157.511963,3742.784180 
	C1156.877319,3748.725342 1156.842163,3754.748779 1156.839600,3760.736084 
	C1156.801514,3848.029297 1156.808228,3935.322266 1156.825562,4022.615479 
	C1156.826660,4027.944092 1156.723755,4033.296143 1157.167969,4038.595703 
	C1157.915161,4047.510254 1160.594482,4050.637939 1169.704956,4050.812500 
	C1194.350830,4051.284180 1219.012207,4051.410400 1243.660400,4051.110840 
	C1256.281616,4050.957520 1268.965210,4050.223877 1281.487793,4048.676514 
	C1334.692993,4042.103027 1370.577148,4012.371826 1391.088623,3963.858643 
	C1405.196655,3930.490479 1406.888428,3895.303223 1401.952271,3859.747314 
	C1399.087524,3839.111816 1392.901733,3819.406494 1382.478027,3801.291016 
	C1361.671387,3765.131348 1330.998413,3742.880371 1289.624390,3735.307861 
	C1272.396484,3732.154785 1255.149292,3732.516846 1233.894531,3732.393311 
z"/>
<path fill="#EED7CA" opacity="1.000000" stroke="none" 
	d="
M3966.318848,4159.295898 
	C3965.935059,4169.056641 3967.414795,4177.178223 3963.541748,4184.711426 
	C3955.071045,4189.104004 3946.226318,4188.165527 3937.939209,4186.570312 
	C3933.187988,4185.656250 3928.465576,4181.889648 3924.846436,4178.285645 
	C3912.570312,4166.062012 3900.641357,4153.477051 3888.854248,4140.775879 
	C3864.831055,4114.890137 3841.085449,4088.746094 3817.041016,4062.879883 
	C3791.179199,4035.058350 3765.018555,4007.514404 3739.144043,3979.704346 
	C3693.753174,3930.918701 3648.512695,3881.993164 3603.121094,3833.208252 
	C3597.293701,3826.945801 3592.112305,3819.882812 3585.033447,3815.715820 
	C3579.810791,3816.825684 3579.858398,3820.382324 3579.772705,3823.604980 
	C3579.577148,3830.932617 3579.562012,3838.266113 3579.560547,3845.597412 
	C3579.538330,3950.244385 3579.553711,4054.891602 3579.470459,4159.538574 
	C3579.464600,4166.836426 3579.107178,4174.182129 3578.111084,4181.395020 
	C3577.870605,4183.134766 3574.424805,4185.602051 3572.455078,4185.600098 
	C3570.510498,4185.598145 3567.160645,4183.116211 3566.877686,4181.333008 
	C3565.840820,4174.803223 3565.487305,4168.112305 3565.477539,4161.480957 
	C3565.387695,4100.825684 3565.423828,4040.170166 3565.423828,3979.514893 
	C3565.423584,3902.862549 3565.416992,3826.210205 3565.437744,3749.557861 
	C3565.439209,3743.562012 3565.333984,3737.542480 3565.811279,3731.576416 
	C3566.483643,3723.176025 3570.970459,3719.467773 3579.227295,3721.223145 
	C3583.535400,3722.139160 3588.054932,3724.339111 3591.353760,3727.239502 
	C3597.839355,3732.941650 3603.635254,3739.447754 3609.547607,3745.779297 
	C3642.746338,3781.334473 3675.898926,3816.932373 3709.058594,3852.523682 
	C3756.753418,3903.716553 3804.394287,3954.959473 3852.149414,4006.095947 
	C3879.895264,4035.806152 3907.781982,4065.385498 3935.707764,4094.926758 
	C3939.273926,4098.698730 3943.460449,4101.884766 3948.894775,4106.703613 
	C3950.379150,4102.152832 3951.895264,4099.347168 3952.115479,4096.443359 
	C3952.568115,4090.476074 3952.364990,4084.456299 3952.365479,4078.458008 
	C3952.373535,3967.812012 3952.353271,3857.166016 3952.417725,3746.520020 
	C3952.421631,3739.884277 3952.703125,3733.190674 3953.708008,3726.655029 
	C3953.958740,3725.023682 3957.393555,3723.285645 3959.629395,3722.791016 
	C3960.870605,3722.516357 3963.448730,3724.393799 3964.033936,3725.856689 
	C3965.238037,3728.868408 3965.913574,3732.232666 3966.078857,3735.488770 
	C3966.416748,3742.138916 3966.320312,3748.813721 3966.320801,3755.478271 
	C3966.328369,3889.453369 3966.324707,4023.428223 3966.318848,4159.295898 
z"/>
<path fill="#EED7C9" opacity="1.000000" stroke="none" 
	d="
M4154.479492,3823.384766 
	C4136.863770,3864.119873 4131.896484,3905.265381 4133.843262,3947.833496 
	C4135.798828,3990.593750 4146.577637,4030.654785 4167.033203,4068.083984 
	C4188.249512,4106.905762 4216.900391,4138.846680 4256.336426,4159.863770 
	C4297.330078,4181.709961 4339.969238,4185.873047 4383.499023,4168.115234 
	C4404.092773,4159.713867 4422.058594,4147.181641 4435.358398,4128.742188 
	C4441.388184,4120.382812 4444.938965,4111.543457 4444.886230,4100.990234 
	C4444.716797,4067.014160 4445.002930,4033.035889 4445.016113,3999.058594 
	C4445.017578,3995.083984 4444.715332,3991.055176 4444.010254,3987.149658 
	C4443.230469,3982.832520 4440.199219,3979.979980 4435.942871,3979.375488 
	C4430.694824,3978.630371 4425.344727,3978.367188 4420.035156,3978.328125 
	C4402.714355,3978.201172 4385.390137,3978.399658 4368.070801,3978.187256 
	C4362.799805,3978.122803 4357.346680,3977.808350 4352.335449,3976.363770 
	C4348.043457,3975.126465 4346.442871,3971.297852 4348.928711,3966.062500 
	C4351.028809,3965.608398 4353.567871,3964.584473 4356.107422,3964.580811 
	C4401.408203,3964.513672 4446.708984,3964.540527 4492.009277,3964.681396 
	C4494.538086,3964.689453 4497.063477,3965.858398 4499.057617,3966.354492 
	C4504.991211,3973.208252 4503.247070,3980.850830 4503.274902,3987.973389 
	C4503.439941,4029.945068 4503.360352,4071.917480 4503.358887,4113.889648 
	C4503.358398,4130.545410 4503.446777,4147.201660 4503.289551,4163.855957 
	C4503.234375,4169.740723 4504.206055,4175.943359 4499.123535,4182.169922 
	C4483.077148,4185.890137 4466.110840,4184.282715 4449.756348,4183.272949 
	C4440.622559,4168.920898 4449.315918,4153.006836 4441.681152,4138.238281 
	C4438.451172,4140.343750 4435.374023,4141.532227 4433.443848,4143.728027 
	C4393.964844,4188.638672 4343.084961,4199.278320 4286.497559,4192.855469 
	C4229.329590,4186.368164 4180.395020,4162.539551 4140.784180,4121.020020 
	C4099.060547,4077.286621 4077.272705,4024.850830 4076.562988,3964.019043 
	C4076.170166,3930.352783 4081.181396,3897.536377 4092.782715,3865.971924 
	C4122.539062,3785.012207 4180.527344,3735.136475 4264.065430,3716.815918 
	C4333.761719,3701.530762 4397.638672,3716.755371 4453.416992,3762.361816 
	C4458.561523,3766.568359 4463.376465,3771.205322 4468.094238,3775.894287 
	C4470.382812,3778.168457 4472.090820,3781.026123 4474.359375,3784.010742 
	C4470.951660,3792.395996 4464.836426,3796.633545 4456.960449,3799.342041 
	C4449.139160,3795.659180 4444.411133,3788.995361 4438.695312,3783.562500 
	C4410.549805,3756.811768 4378.237305,3737.244873 4339.793945,3730.264893 
	C4281.193848,3719.625732 4228.510254,3731.411133 4185.644531,3775.395752 
	C4172.470215,3788.913818 4163.276855,3805.143066 4154.479492,3823.384766 
z"/>
<path fill="#EED7CA" opacity="1.000000" stroke="none" 
	d="
M928.514160,4112.484375 
	C906.075317,4136.716309 881.956055,4156.551270 853.271240,4170.162109 
	C771.340088,4209.036621 692.725403,4201.870117 618.603271,4150.633789 
	C572.717590,4118.915527 540.960449,4075.482910 525.569763,4021.810059 
	C503.196289,3943.784668 516.219238,3871.310547 565.318298,3806.165527 
	C600.340271,3759.698730 646.423950,3729.081055 703.252747,3716.749268 
	C770.774292,3702.097412 833.197388,3716.020508 888.853210,3756.892822 
	C945.827332,3798.734131 980.193665,3854.887451 989.948486,3925.200684 
	C995.971497,3968.614990 988.014771,4010.131348 969.933411,4049.845215 
	C959.634705,4072.465576 945.940308,4092.863281 928.514160,4112.484375 
M922.439880,4063.617920 
	C939.729980,4016.951172 943.479736,3969.056885 935.274719,3920.126221 
	C928.241760,3878.185547 914.493652,3838.759521 888.701355,3804.521729 
	C848.363159,3750.974365 795.984802,3721.800537 727.201355,3726.916260 
	C682.367676,3730.250732 645.462891,3748.887451 616.726929,3783.443359 
	C596.333069,3807.967773 583.094299,3836.142578 576.109131,3867.119873 
	C568.740173,3899.799316 566.568909,3932.644531 570.937012,3966.232910 
	C576.250000,4007.087158 587.312073,4045.741211 608.143616,4081.291748 
	C628.768799,4116.489746 656.072693,4145.063965 693.290405,4163.076172 
	C762.470398,4196.556641 837.491455,4176.010254 880.935791,4130.232422 
	C898.688354,4111.526855 911.126221,4089.818359 922.439880,4063.617920 
z"/>
<path fill="#EED7CA" opacity="1.000000" stroke="none" 
	d="
M1656.001953,4083.885742 
	C1628.778809,4084.190186 1603.519043,4083.196045 1577.723022,4084.555420 
	C1574.572144,4090.653320 1571.623169,4095.785156 1569.216064,4101.159668 
	C1565.951416,4108.448242 1563.184814,4115.958496 1560.057373,4123.310547 
	C1552.622314,4140.789551 1550.501465,4141.598145 1530.231689,4134.192871 
	C1530.509277,4130.783691 1530.126465,4126.809082 1531.261597,4123.330566 
	C1533.734741,4115.749512 1536.912476,4108.393555 1539.921265,4100.993652 
	C1587.823242,3983.183105 1635.733154,3865.375732 1683.687988,3747.586426 
	C1686.447754,3740.807617 1689.493286,3734.137207 1692.626221,3727.520752 
	C1694.457153,3723.653809 1697.759155,3721.265381 1702.079590,3721.200195 
	C1714.056274,3721.019775 1726.037598,3721.006836 1738.015503,3721.106689 
	C1744.019653,3721.156738 1747.831787,3724.641602 1750.213257,3729.892334 
	C1752.413086,3734.742676 1754.685669,3739.564453 1756.724731,3744.482422 
	C1798.801147,3845.968506 1840.827271,3947.475586 1882.912231,4048.958008 
	C1898.980957,4087.705566 1915.217773,4126.383301 1931.255371,4165.143555 
	C1933.730347,4171.125000 1937.424683,4176.937500 1936.218750,4184.739746 
	C1933.607544,4185.563477 1931.221313,4186.924805 1928.807983,4186.974609 
	C1916.161865,4187.236816 1903.503906,4186.970215 1890.859863,4187.280762 
	C1882.286865,4187.491699 1877.460449,4183.506348 1874.368164,4175.727539 
	C1865.760498,4154.072754 1856.746948,4132.579590 1847.875000,4111.029785 
	C1845.339966,4104.873047 1842.678833,4098.768066 1840.189209,4092.593506 
	C1837.922607,4086.971191 1833.634521,4084.411865 1827.805908,4084.216309 
	C1821.818237,4084.015381 1815.824585,4083.903320 1809.833618,4083.900391 
	C1759.222778,4083.876221 1708.612061,4083.885986 1656.001953,4083.885742 
M1590.959839,4060.296875 
	C1597.470581,4061.177002 1603.979126,4062.801270 1610.492554,4062.821045 
	C1673.805298,4063.013428 1737.118774,4062.941895 1800.432129,4062.929199 
	C1804.429321,4062.928467 1808.499268,4063.234375 1812.402466,4062.590576 
	C1816.092285,4061.982178 1819.606689,4060.310547 1823.557373,4058.986084 
	C1823.093262,4055.377930 1823.322266,4052.571289 1822.351074,4050.271484 
	C1783.731079,3958.812500 1745.013184,3867.394775 1706.198853,3776.018311 
	C1705.523315,3774.427734 1703.515381,3773.403564 1701.146973,3771.202148 
	C1698.453857,3776.482666 1695.702026,3780.935059 1693.810181,3785.726807 
	C1660.041382,3871.260742 1626.341797,3956.821777 1592.781616,4042.437744 
	C1590.886353,4047.272217 1590.319702,4052.627441 1590.959839,4060.296875 
z"/>
<path fill="#EED7CA" opacity="1.000000" stroke="none" 
	d="
M2932.114746,3731.288086 
	C2987.252930,3870.964844 3041.761230,4009.215088 3096.354004,4147.432129 
	C3096.752930,4148.441406 3098.317139,4148.991211 3099.384033,4149.790527 
	C3104.448242,4149.775879 3105.769531,4145.693359 3107.191895,4142.107910 
	C3113.826660,4125.381348 3120.303955,4108.592773 3126.816650,4091.818115 
	C3171.439697,3976.878662 3216.041504,3861.930664 3260.717529,3747.011719 
	C3263.368652,3740.192139 3266.342773,3733.465088 3269.708984,3726.976318 
	C3270.794678,3724.883789 3273.451660,3723.381592 3275.693115,3722.171387 
	C3278.460205,3720.677734 3283.455566,3724.041260 3282.780273,3726.968262 
	C3281.593506,3732.112549 3280.186523,3737.259521 3278.280273,3742.175781 
	C3258.763184,3792.508789 3239.165771,3842.810303 3219.515625,3893.091553 
	C3184.095947,3983.722168 3148.571289,4074.311523 3113.211182,4164.965820 
	C3103.779053,4189.146973 3104.433838,4187.395996 3080.049805,4187.459961 
	C3070.119629,4187.485840 3060.187988,4186.991699 3051.840332,4186.775391 
	C3044.506348,4181.393555 3042.842773,4174.729004 3040.448730,4168.583984 
	C2997.145752,4057.422852 2953.903809,3946.237793 2910.647705,3835.058105 
	C2898.806396,3804.622803 2886.924316,3774.203125 2875.150879,3743.741699 
	C2872.799561,3737.657715 2869.281250,3731.782227 2870.621338,3723.774902 
	C2872.671631,3722.937500 2874.979736,3721.220947 2877.328613,3721.163574 
	C2890.648438,3720.838135 2903.978027,3720.924561 2917.304443,3720.839844 
	C2923.991943,3720.797363 2928.782471,3723.673828 2932.114746,3731.288086 
z"/>
<path fill="#EED7CA" opacity="1.000000" stroke="none" 
	d="
M2396.202637,4008.000000 
	C2396.204834,4056.616455 2396.121582,4103.232910 2396.245117,4149.849609 
	C2396.305420,4172.659668 2397.052734,4173.430664 2419.930176,4173.473145 
	C2481.863525,4173.587891 2543.797119,4173.474121 2605.730713,4173.572754 
	C2613.515137,4173.584961 2621.589355,4172.314453 2628.519043,4175.844238 
	C2630.506592,4181.883789 2627.156250,4184.662598 2623.458008,4185.668457 
	C2618.425781,4187.037109 2613.005859,4187.457031 2607.751465,4187.463867 
	C2525.839600,4187.566406 2443.927490,4187.540039 2362.015625,4187.529297 
	C2358.687256,4187.528809 2355.342529,4187.578613 2352.033447,4187.287109 
	C2343.986084,4186.579102 2341.263916,4184.083008 2340.632080,4176.328613 
	C2340.200439,4171.030762 2340.307129,4165.682617 2340.306641,4160.356934 
	C2340.294189,4023.170898 2340.289307,3885.984863 2340.331055,3748.798828 
	C2340.333008,3742.151123 2340.514648,3735.480469 2341.101807,3728.863770 
	C2341.498779,3724.387207 2344.635498,3721.459717 2349.018799,3721.237061 
	C2363.522705,3720.499268 2378.101807,3719.088623 2393.514404,3722.929443 
	C2394.390137,3726.833008 2395.809082,3730.541504 2395.951416,3734.298096 
	C2396.329346,3744.273926 2396.194580,3754.270996 2396.195801,3764.259521 
	C2396.207031,3844.839600 2396.202148,3925.419922 2396.202637,4008.000000 
z"/>
<path fill="#EED7CA" opacity="1.000000" stroke="none" 
	d="
M3434.777832,3944.000000 
	C3434.777588,4017.985596 3434.836914,4089.970947 3434.698486,4161.956543 
	C3434.683594,4169.750000 3436.554199,4178.055176 3430.438477,4185.717773 
	C3415.860352,4188.990234 3400.602783,4187.574707 3385.407715,4186.797852 
	C3381.011719,4186.573242 3378.015869,4183.599609 3377.460938,4179.150391 
	C3376.885742,4174.540039 3376.726807,4169.853027 3376.725830,4165.199219 
	C3376.697754,4024.560791 3376.674072,3883.922607 3376.758545,3743.284180 
	C3376.771484,3721.429932 3377.486816,3720.736572 3399.166260,3720.784668 
	C3409.706543,3720.808105 3420.447754,3719.138184 3430.203125,3722.566406 
	C3435.071289,3727.265381 3434.674561,3732.764160 3434.706787,3738.041504 
	C3434.812256,3755.370850 3434.781006,3772.700928 3434.782471,3790.030762 
	C3434.786865,3840.687256 3434.781738,3891.343506 3434.777832,3944.000000 
z"/>
<path fill="#EED7CA" opacity="1.000000" stroke="none" 
	d="
M2775.743896,3820.000000 
	C2775.742432,3942.355713 2775.751709,4062.711182 2775.736328,4183.158691 
	C2770.973389,4184.936035 2767.989014,4186.963867 2764.968262,4187.020020 
	C2751.135254,4187.274902 2737.172607,4189.126953 2722.440186,4185.221680 
	C2721.502686,4181.468262 2720.116211,4177.811035 2719.765625,4174.058105 
	C2719.271973,4168.776367 2719.499512,4163.422852 2719.499268,4158.100098 
	C2719.491943,4022.347168 2719.479492,3886.594482 2719.531738,3750.841553 
	C2719.534912,3742.282471 2720.052979,3733.723389 2720.343262,3724.811768 
	C2724.376221,3723.315674 2727.350342,3721.316406 2730.370361,3721.245361 
	C2744.200928,3720.919189 2758.160156,3718.972168 2771.081299,3722.553467 
	C2776.885498,3728.024414 2775.625977,3734.332520 2775.661621,3740.142334 
	C2775.820801,3766.093994 2775.739014,3792.047363 2775.743896,3820.000000 
z"/>
<path fill="#C69680" opacity="1.000000" stroke="none" 
	d="
M2748.000000,3444.447754 
	C2359.356445,3444.275146 1972.713013,3444.104492 1586.069458,3443.858398 
	C1584.175171,3443.857178 1582.281616,3442.791016 1579.238159,3441.876953 
	C1578.382568,3437.886230 1577.018799,3433.527832 1576.606201,3429.081299 
	C1576.115356,3423.791504 1576.417480,3418.425537 1576.417358,3413.092773 
	C1576.414307,2894.446533 1576.319214,2375.800537 1576.493774,1857.154419 
	C1576.530396,1748.403442 1592.797363,1642.017944 1626.729614,1538.577515 
	C1665.789062,1419.507202 1724.756714,1311.195557 1803.601318,1213.727905 
	C1881.565308,1117.348999 1973.915405,1037.573853 2080.548584,974.480713 
	C2181.319336,914.856140 2289.339111,874.024841 2404.359131,851.958557 
	C2452.839111,842.657837 2501.655029,836.040833 2551.120117,834.963013 
	C2565.095703,834.658508 2579.058350,832.608215 2593.014648,832.730652 
	C2692.813477,833.606506 2790.947754,846.123901 2886.880615,874.610962 
	C3002.451416,908.929443 3109.032471,961.384766 3205.607178,1033.412598 
	C3325.335693,1122.709473 3422.164307,1232.338257 3494.407959,1363.431152 
	C3545.998291,1457.046265 3581.787842,1556.324951 3602.202637,1661.133057 
	C3609.208008,1697.098145 3613.696533,1733.436279 3617.003418,1769.998535 
	C3620.015137,1803.294312 3620.314209,1836.546143 3620.318115,1869.855469 
	C3620.375732,2383.835205 3620.368164,2897.814697 3620.282959,3411.794434 
	C3620.281250,3421.593750 3621.939697,3431.699951 3617.393066,3442.117676 
	C3613.555176,3442.852295 3609.780518,3444.018555 3605.956543,3444.211914 
	C3598.640625,3444.582520 3591.296631,3444.440430 3583.964111,3444.440674 
	C3305.976074,3444.447510 3027.988037,3444.446533 2748.000000,3444.447754 
M1624.718140,3182.000000 
	C1624.717773,3241.318115 1624.714111,3300.636230 1624.722168,3359.954346 
	C1624.722900,3365.285889 1624.551880,3370.633301 1624.888672,3375.946289 
	C1625.815552,3390.564941 1630.088745,3394.994385 1644.292725,3395.765625 
	C1651.604492,3396.163086 1658.951660,3395.947266 1666.282837,3395.947266 
	C2288.130371,3395.952881 2909.978027,3395.952393 3531.825439,3395.950684 
	C3537.823975,3395.950684 3543.823242,3395.990723 3549.820312,3395.889160 
	C3553.146484,3395.832764 3556.518555,3395.818604 3559.781250,3395.263184 
	C3566.395020,3394.137207 3570.490723,3390.110352 3571.284424,3383.282227 
	C3571.974121,3377.348633 3571.942383,3371.311768 3571.942627,3365.320557 
	C3571.962402,2860.777588 3571.923340,2356.234619 3572.007812,1851.691772 
	C3572.014648,1811.644897 3569.351807,1771.838989 3564.367188,1732.120117 
	C3554.526367,1653.706665 3535.641113,1577.598022 3506.912109,1503.972290 
	C3443.220947,1340.747925 3342.914062,1204.229126 3206.398193,1094.594849 
	C3125.243164,1029.420288 3035.596680,978.948425 2937.931396,942.485107 
	C2829.971436,902.178223 2718.254395,883.242615 2603.414062,881.242065 
	C2584.806885,880.917908 2566.168945,883.198914 2547.532959,883.503906 
	C2514.123047,884.050720 2481.020752,887.987915 2448.152344,893.204407 
	C2325.700928,912.638489 2210.805908,953.458923 2103.940918,1016.591492 
	C2004.193848,1075.518555 1917.890137,1150.214233 1844.410156,1239.533813 
	C1789.942017,1305.743408 1745.409180,1378.349854 1710.206177,1456.602173 
	C1685.803345,1510.846802 1666.571167,1566.865601 1652.614380,1624.679443 
	C1632.811157,1706.711914 1624.616333,1790.008667 1624.645996,1874.319580 
	C1624.799316,2308.879639 1624.719116,2743.439941 1624.718140,3182.000000 
z"/>
<path fill="#C69680" opacity="1.000000" stroke="none" 
	d="
M1235.869873,3732.394043 
	C1255.149292,3732.516846 1272.396484,3732.154785 1289.624390,3735.307861 
	C1330.998413,3742.880371 1361.671387,3765.131348 1382.478027,3801.291016 
	C1392.901733,3819.406494 1399.087524,3839.111816 1401.952271,3859.747314 
	C1406.888428,3895.303223 1405.196655,3930.490479 1391.088623,3963.858643 
	C1370.577148,4012.371826 1334.692993,4042.103027 1281.487793,4048.676514 
	C1268.965210,4050.223877 1256.281616,4050.957520 1243.660400,4051.110840 
	C1219.012207,4051.410400 1194.350830,4051.284180 1169.704956,4050.812500 
	C1160.594482,4050.637939 1157.915161,4047.510254 1157.167969,4038.595703 
	C1156.723755,4033.296143 1156.826660,4027.944092 1156.825562,4022.615479 
	C1156.808228,3935.322266 1156.801514,3848.029297 1156.839600,3760.736084 
	C1156.842163,3754.748779 1156.877319,3748.725342 1157.511963,3742.784180 
	C1158.206787,3736.279053 1161.214233,3733.544678 1167.944214,3732.856445 
	C1172.569580,3732.383301 1177.257812,3732.427002 1181.918335,3732.414551 
	C1199.243652,3732.368408 1216.569092,3732.394287 1235.869873,3732.394043 
z"/>
<path fill="#C59680" opacity="1.000000" stroke="none" 
	d="
M921.835449,4065.039551 
	C911.126221,4089.818359 898.688354,4111.526855 880.935791,4130.232422 
	C837.491455,4176.010254 762.470398,4196.556641 693.290405,4163.076172 
	C656.072693,4145.063965 628.768799,4116.489746 608.143616,4081.291748 
	C587.312073,4045.741211 576.250000,4007.087158 570.937012,3966.232910 
	C566.568909,3932.644531 568.740173,3899.799316 576.109131,3867.119873 
	C583.094299,3836.142578 596.333069,3807.967773 616.726929,3783.443359 
	C645.462891,3748.887451 682.367676,3730.250732 727.201355,3726.916260 
	C795.984802,3721.800537 848.363159,3750.974365 888.701355,3804.521729 
	C914.493652,3838.759521 928.241760,3878.185547 935.274719,3920.126221 
	C943.479736,3969.056885 939.729980,4016.951172 921.835449,4065.039551 
z"/>
<path fill="#C69680" opacity="1.000000" stroke="none" 
	d="
M1590.047363,4059.018555 
	C1590.319702,4052.627441 1590.886353,4047.272217 1592.781616,4042.437744 
	C1626.341797,3956.821777 1660.041382,3871.260742 1693.810181,3785.726807 
	C1695.702026,3780.935059 1698.453857,3776.482666 1701.146973,3771.202148 
	C1703.515381,3773.403564 1705.523315,3774.427734 1706.198853,3776.018311 
	C1745.013184,3867.394775 1783.731079,3958.812500 1822.351074,4050.271484 
	C1823.322266,4052.571289 1823.093262,4055.377930 1823.557373,4058.986084 
	C1819.606689,4060.310547 1816.092285,4061.982178 1812.402466,4062.590576 
	C1808.499268,4063.234375 1804.429321,4062.928467 1800.432129,4062.929199 
	C1737.118774,4062.941895 1673.805298,4063.013428 1610.492554,4062.821045 
	C1603.979126,4062.801270 1597.470581,4061.177002 1590.047363,4059.018555 
z"/>
<path fill="#EDD6C8" opacity="1.000000" stroke="none" 
	d="
M1624.719238,3180.000000 
	C1624.719116,2743.439941 1624.799316,2308.879639 1624.645996,1874.319580 
	C1624.616333,1790.008667 1632.811157,1706.711914 1652.614380,1624.679443 
	C1666.571167,1566.865601 1685.803345,1510.846802 1710.206177,1456.602173 
	C1745.409180,1378.349854 1789.942017,1305.743408 1844.410156,1239.533813 
	C1917.890137,1150.214233 2004.193848,1075.518555 2103.940918,1016.591492 
	C2210.805908,953.458923 2325.700928,912.638489 2448.152344,893.204407 
	C2481.020752,887.987915 2514.123047,884.050720 2547.532959,883.503906 
	C2566.168945,883.198914 2584.806885,880.917908 2603.414062,881.242065 
	C2718.254395,883.242615 2829.971436,902.178223 2937.931396,942.485107 
	C3035.596680,978.948425 3125.243164,1029.420288 3206.398193,1094.594849 
	C3342.914062,1204.229126 3443.220947,1340.747925 3506.912109,1503.972290 
	C3535.641113,1577.598022 3554.526367,1653.706665 3564.367188,1732.120117 
	C3569.351807,1771.838989 3572.014648,1811.644897 3572.007812,1851.691772 
	C3571.923340,2356.234619 3571.962402,2860.777588 3571.942627,3365.320557 
	C3571.942383,3371.311768 3571.974121,3377.348633 3571.284424,3383.282227 
	C3570.490723,3390.110352 3566.395020,3394.137207 3559.781250,3395.263184 
	C3556.518555,3395.818604 3553.146484,3395.832764 3549.820312,3395.889160 
	C3543.823242,3395.990723 3537.823975,3395.950684 3531.825439,3395.950684 
	C2909.978027,3395.952393 2288.130371,3395.952881 1666.282837,3395.947266 
	C1658.951660,3395.947266 1651.604492,3396.163086 1644.292725,3395.765625 
	C1630.088745,3394.994385 1625.815552,3390.564941 1624.888672,3375.946289 
	C1624.551880,3370.633301 1624.722900,3365.285889 1624.722168,3359.954346 
	C1624.714111,3300.636230 1624.717773,3241.318115 1624.719238,3180.000000 
M3210.673828,1131.236816 
	C3207.139404,1128.190918 3203.674805,1125.059448 3200.060303,1122.111572 
	C3134.093750,1068.310425 3062.435791,1023.827332 2984.653320,989.038330 
	C2877.500977,941.113403 2765.177979,914.551819 2648.251709,908.337402 
	C2560.661621,903.682129 2473.877930,911.295410 2388.105957,930.691772 
	C2293.657715,952.050232 2204.785400,987.345764 2121.300781,1035.982544 
	C2021.231567,1094.281128 1934.486816,1168.384399 1861.749268,1258.717529 
	C1778.240356,1362.427490 1718.201538,1478.104980 1683.575195,1606.814453 
	C1660.927490,1690.998047 1650.907227,1776.622070 1650.978638,1863.842773 
	C1651.381226,2355.841553 1651.170654,2847.840820 1651.177002,3339.839844 
	C1651.177124,3345.838867 1650.972412,3351.862793 1651.451050,3357.827881 
	C1651.753540,3361.601318 1653.148438,3365.287109 1653.991455,3368.757080 
	C1664.021973,3372.948975 1673.462402,3371.446045 1682.641602,3371.447266 
	C2291.307129,3371.525391 2899.972412,3371.518066 3508.637939,3371.515625 
	C3513.304443,3371.515625 3517.972900,3371.554199 3522.637207,3371.438721 
	C3525.963867,3371.356445 3529.321533,3371.287598 3532.601562,3370.790283 
	C3541.101807,3369.500977 3544.481445,3366.367920 3545.189453,3357.900391 
	C3545.854248,3349.949219 3545.734375,3341.921143 3545.734619,3333.927002 
	C3545.755615,2845.261230 3545.753662,2356.595459 3545.748047,1867.929810 
	C3545.748047,1857.929932 3545.683350,1847.930176 3545.637207,1837.930298 
	C3545.455322,1798.554810 3542.539307,1759.421387 3537.006592,1720.397217 
	C3517.808105,1584.983276 3471.044678,1459.919312 3397.617432,1344.635986 
	C3346.722656,1264.728882 3284.781250,1194.552856 3210.673828,1131.236816 
z"/>
<path fill="#C5957F" opacity="1.000000" stroke="none" 
	d="
M3211.738281,1132.171753 
	C3284.781250,1194.552856 3346.722656,1264.728882 3397.617432,1344.635986 
	C3471.044678,1459.919312 3517.808105,1584.983276 3537.006592,1720.397217 
	C3542.539307,1759.421387 3545.455322,1798.554810 3545.637207,1837.930298 
	C3545.683350,1847.930176 3545.748047,1857.929932 3545.748047,1867.929810 
	C3545.753662,2356.595459 3545.755615,2845.261230 3545.734619,3333.927002 
	C3545.734375,3341.921143 3545.854248,3349.949219 3545.189453,3357.900391 
	C3544.481445,3366.367920 3541.101807,3369.500977 3532.601562,3370.790283 
	C3529.321533,3371.287598 3525.963867,3371.356445 3522.637207,3371.438721 
	C3517.972900,3371.554199 3513.304443,3371.515625 3508.637939,3371.515625 
	C2899.972412,3371.518066 2291.307129,3371.525391 1682.641602,3371.447266 
	C1673.462402,3371.446045 1664.021973,3372.948975 1653.991455,3368.757080 
	C1653.148438,3365.287109 1651.753540,3361.601318 1651.451050,3357.827881 
	C1650.972412,3351.862793 1651.177124,3345.838867 1651.177002,3339.839844 
	C1651.170654,2847.840820 1651.381226,2355.841553 1650.978638,1863.842773 
	C1650.907227,1776.622070 1660.927490,1690.998047 1683.575195,1606.814453 
	C1718.201538,1478.104980 1778.240356,1362.427490 1861.749268,1258.717529 
	C1934.486816,1168.384399 2021.231567,1094.281128 2121.300781,1035.982544 
	C2204.785400,987.345764 2293.657715,952.050232 2388.105957,930.691772 
	C2473.877930,911.295410 2560.661621,903.682129 2648.251709,908.337402 
	C2765.177979,914.551819 2877.500977,941.113403 2984.653320,989.038330 
	C3062.435791,1023.827332 3134.093750,1068.310425 3200.060303,1122.111572 
	C3203.674805,1125.059448 3207.139404,1128.190918 3211.738281,1132.171753 
M2373.973145,2532.309814 
	C2373.657471,2540.121338 2368.848633,2545.882568 2364.893066,2551.999268 
	C2349.654785,2575.563477 2336.166748,2600.043213 2325.711914,2626.134521 
	C2299.184814,2692.335693 2286.704102,2761.103271 2297.592285,2831.747314 
	C2317.810059,2962.923096 2390.472168,3054.802246 2513.395264,3105.369873 
	C2569.460449,3128.433838 2628.258789,3134.335449 2688.103271,3123.639404 
	C2747.134521,3113.088623 2797.579590,3085.217529 2838.086426,3041.449463 
	C2889.166504,2986.257324 2914.531250,2920.579102 2912.426270,2844.670166 
	C2910.854736,2787.995605 2890.061279,2739.545654 2851.523682,2698.687256 
	C2815.482178,2660.475342 2770.823242,2639.228760 2718.880859,2630.755371 
	C2651.587891,2619.777588 2567.972168,2650.913086 2529.181885,2725.135498 
	C2510.996338,2759.932617 2503.558105,2796.799072 2510.166016,2835.467041 
	C2521.408691,2901.256348 2574.841064,2949.472412 2641.094238,2957.137207 
	C2708.597412,2964.946533 2776.307861,2912.255127 2776.217041,2837.304443 
	C2776.162109,2791.893799 2742.789551,2744.944092 2686.791016,2738.765137 
	C2682.889648,2738.334717 2678.781738,2738.442871 2674.935547,2739.173340 
	C2669.666016,2740.174561 2665.736328,2745.397217 2665.363037,2750.674072 
	C2664.998779,2755.825928 2668.617920,2761.056641 2674.310547,2762.416260 
	C2679.466797,2763.647949 2684.879395,2763.776367 2690.073975,2764.883057 
	C2725.728760,2772.477783 2752.780518,2801.006836 2750.583252,2840.840088 
	C2747.052246,2904.841064 2695.681885,2932.288086 2655.343994,2932.334229 
	C2599.185547,2932.398926 2548.104492,2892.095459 2536.842773,2837.443115 
	C2532.499512,2816.365723 2532.493408,2794.761719 2537.968750,2773.915527 
	C2553.268066,2715.664307 2590.122559,2677.300537 2647.919678,2660.381348 
	C2680.025879,2650.982910 2712.838135,2652.397461 2744.572021,2662.530273 
	C2821.808838,2687.192627 2868.845703,2739.369141 2884.604980,2819.300781 
	C2889.454102,2843.895020 2888.343750,2868.346680 2884.135010,2892.842041 
	C2872.382812,2961.237549 2838.374023,3016.065674 2782.184814,3056.439209 
	C2730.241699,3093.761719 2671.884766,3107.569336 2608.165283,3101.560059 
	C2549.557129,3096.033203 2496.598145,3076.479736 2449.325684,3041.672607 
	C2387.938721,2996.473389 2347.866943,2936.610840 2329.220703,2862.805176 
	C2318.664307,2821.019287 2317.354736,2778.636230 2323.128174,2735.779053 
	C2329.704102,2686.963379 2343.619629,2640.616211 2367.615723,2597.695801 
	C2391.712646,2554.595703 2420.490234,2514.607178 2452.551758,2477.010986 
	C2454.667725,2474.529785 2456.021973,2471.397949 2457.726074,2468.566406 
	C2461.838867,2461.733643 2465.548584,2454.616943 2470.129395,2448.114014 
	C2491.624756,2417.599365 2513.355225,2387.250488 2535.010254,2356.848389 
	C2548.544922,2337.846191 2562.005127,2318.790039 2575.664795,2299.877930 
	C2587.033936,2284.136963 2589.498047,2283.975098 2603.507324,2296.300293 
	C2613.010498,2304.661133 2622.303955,2313.336914 2632.385986,2320.951904 
	C2705.168945,2375.925781 2786.145996,2396.000488 2875.591309,2375.245117 
	C2940.015137,2360.296387 2992.908447,2325.582031 3036.160156,2275.894287 
	C3040.966553,2270.372559 3045.449707,2264.523438 3049.624512,2258.508301 
	C3056.533203,2248.554199 3056.212891,2244.140381 3048.369385,2235.548096 
	C3045.229980,2232.108887 3041.788086,2228.927002 3038.317627,2225.813232 
	C3030.380859,2218.691895 3022.335938,2211.691650 3014.345215,2204.630371 
	C2957.139893,2154.079102 2891.312988,2126.592529 2814.030029,2127.592285 
	C2759.780029,2128.294189 2710.465576,2143.837891 2664.595703,2172.003418 
	C2639.947754,2187.138184 2618.722168,2206.229248 2598.959717,2227.154541 
	C2594.048340,2232.354736 2590.227539,2239.201904 2580.141357,2240.699951 
	C2575.996826,2237.487549 2570.688477,2233.632568 2565.667236,2229.434082 
	C2547.333008,2214.103760 2547.225830,2213.965576 2560.531250,2193.963135 
	C2588.304932,2152.209473 2606.117188,2106.632568 2612.883789,2056.938232 
	C2614.765381,2043.119751 2615.722656,2029.085693 2615.868164,2015.137573 
	C2616.285645,1975.142822 2615.992920,1935.141113 2616.173096,1895.143066 
	C2616.205322,1887.972290 2614.658936,1880.382690 2620.806152,1872.385010 
	C2629.269043,1871.093872 2639.073242,1869.514526 2648.902588,1868.112305 
	C2711.324463,1859.207153 2766.385498,1834.184814 2813.457764,1792.203491 
	C2822.121094,1784.477173 2831.370605,1778.982666 2842.255615,1775.022949 
	C2897.338867,1754.984741 2947.180664,1725.967041 2990.781982,1686.553345 
	C3039.844238,1642.203125 3078.334717,1589.932617 3108.110596,1530.994995 
	C3149.188477,1449.686646 3172.184814,1363.171509 3182.980713,1273.113281 
	C3183.848877,1265.872559 3183.891357,1258.452637 3183.489014,1251.161621 
	C3183.057861,1243.354614 3178.890625,1238.748779 3171.045410,1237.934570 
	C3163.136475,1237.113647 3155.076660,1237.266479 3147.110596,1237.616943 
	C3139.800293,1237.938721 3132.542480,1239.300781 3125.234375,1239.844360 
	C3088.969727,1242.541504 3054.319336,1251.523071 3021.071289,1266.155396 
	C3016.287109,1268.260742 3011.302490,1269.910400 3005.397949,1272.155884 
	C2999.819580,1266.979370 2994.367920,1262.216553 2989.248047,1257.120850 
	C2960.424805,1228.434814 2931.853027,1199.493408 2902.830566,1171.010864 
	C2890.181152,1158.596802 2885.044434,1158.940796 2872.580811,1170.676758 
	C2869.669922,1173.417725 2866.900391,1176.309326 2864.072266,1179.137939 
	C2838.619141,1204.594971 2813.217041,1230.103638 2787.669922,1255.465942 
	C2783.055664,1260.046875 2779.208252,1265.895386 2771.781982,1267.207153 
	C2764.260010,1265.224731 2760.069092,1258.806885 2754.988525,1253.751953 
	C2711.983643,1210.964111 2669.117920,1168.036377 2626.198730,1125.162476 
	C2622.426514,1121.394165 2618.767822,1117.477173 2614.712646,1114.034668 
	C2606.735596,1107.262817 2601.162842,1107.101929 2593.418701,1113.590576 
	C2588.833740,1117.432373 2584.717773,1121.843384 2580.474121,1126.081665 
	C2537.550537,1168.951416 2494.690918,1211.885376 2451.670654,1254.657959 
	C2446.634766,1259.664917 2442.618652,1266.476562 2432.658447,1267.235229 
	C2428.118164,1262.998657 2422.678467,1258.197510 2417.546387,1253.087524 
	C2392.508789,1228.157593 2367.572754,1203.125977 2342.550537,1178.181030 
	C2338.306885,1173.950806 2334.078857,1169.632080 2329.373291,1165.955933 
	C2323.055420,1161.020386 2317.211426,1160.883301 2311.040283,1165.598877 
	C2306.299561,1169.221313 2302.058105,1173.536987 2297.815674,1177.766113 
	C2270.904785,1204.593750 2244.120850,1231.548950 2217.126953,1258.292603 
	C2212.052734,1263.319702 2207.934570,1269.918213 2199.847656,1271.240723 
	C2197.923828,1270.704590 2195.882080,1270.455322 2194.135498,1269.601807 
	C2151.443604,1248.742432 2105.762451,1240.474609 2058.845703,1237.468384 
	C2052.870850,1237.085571 2046.825439,1236.915649 2040.866089,1237.361694 
	C2028.483643,1238.288208 2024.029907,1242.739258 2023.954956,1254.860840 
	C2023.897339,1264.171265 2024.264282,1273.566040 2025.469604,1282.789185 
	C2033.268311,1342.462402 2046.353882,1400.911987 2067.347168,1457.417236 
	C2098.150879,1540.327271 2141.727295,1615.041260 2206.283447,1676.754883 
	C2250.339355,1718.870850 2300.847900,1750.352173 2357.464600,1772.081177 
	C2372.035156,1777.673218 2384.987305,1784.750000 2396.825195,1794.892090 
	C2445.197266,1836.334839 2501.006104,1861.192749 2564.395020,1868.954956 
	C2572.752441,1869.978516 2581.704102,1869.752808 2590.413330,1875.442749 
	C2590.789307,1881.697998 2591.491943,1888.237915 2591.521729,1894.781006 
	C2591.648682,1922.779663 2591.971924,1950.786499 2591.454834,1978.776123 
	C2591.036865,2001.406494 2590.608154,2024.129761 2588.270508,2046.612793 
	C2582.921875,2098.064209 2564.275146,2144.739502 2534.369629,2186.886719 
	C2532.254150,2189.868164 2528.789795,2191.892578 2525.545166,2194.716553 
	C2521.111328,2191.144287 2517.459473,2188.339600 2513.960205,2185.355957 
	C2505.340088,2178.005615 2497.084717,2170.195312 2488.165527,2163.233154 
	C2415.370605,2106.411377 2333.790039,2086.360840 2243.691895,2108.197998 
	C2176.435059,2124.499023 2122.927979,2162.888672 2080.729248,2217.376465 
	C2079.098877,2219.481689 2077.519775,2221.639404 2076.085693,2223.880859 
	C2072.449463,2229.564209 2072.526611,2235.201660 2076.768555,2240.546631 
	C2078.419189,2242.627197 2080.192627,2244.673340 2082.199463,2246.398682 
	C2100.383789,2262.032715 2117.610352,2279.020020 2137.038574,2292.927002 
	C2221.597900,2353.455078 2312.982178,2365.088379 2409.928711,2327.160156 
	C2453.552246,2310.093506 2489.750732,2281.995361 2520.829102,2247.145996 
	C2524.256836,2243.302246 2526.552979,2237.880615 2534.873535,2237.476807 
	C2539.820557,2241.640381 2545.898438,2246.676025 2551.889404,2251.813232 
	C2568.180420,2265.782471 2568.292725,2266.250488 2555.598633,2284.105469 
	C2510.797852,2347.122070 2465.946045,2410.102539 2421.089600,2473.079590 
	C2410.262695,2488.280273 2399.407227,2503.462158 2388.434570,2518.557861 
	C2384.562744,2523.884521 2381.035400,2529.992676 2374.177734,2526.232910 
	C2374.667480,2524.318604 2375.427246,2522.424072 2375.570557,2520.483887 
	C2375.713135,2518.552734 2375.582031,2516.459473 2374.967529,2514.641357 
	C2373.144043,2509.247070 2367.816650,2506.142090 2362.541016,2507.226807 
	C2357.468994,2508.269043 2354.535400,2511.638184 2353.305176,2516.486572 
	C2351.952393,2521.818848 2354.585938,2528.083984 2359.824707,2529.304932 
	C2364.053955,2530.290771 2368.781982,2529.138184 2373.973145,2532.309814 
M2871.033691,3185.262451 
	C2838.989502,3208.521240 2804.427246,3227.155518 2766.990234,3239.999268 
	C2708.891113,3259.931885 2649.409668,3268.003906 2587.891846,3261.390381 
	C2530.699219,3255.241699 2477.233643,3238.561523 2427.004395,3210.683105 
	C2389.894775,3190.085938 2357.775146,3163.431152 2328.694580,3132.758301 
	C2277.452393,3078.710938 2244.250000,3015.131104 2227.604004,2942.720703 
	C2221.759766,2917.298340 2218.772705,2891.548340 2218.390625,2865.446533 
	C2218.294434,2858.891602 2217.239258,2852.183838 2215.458740,2845.875244 
	C2214.104980,2841.078125 2209.581299,2838.855469 2204.452637,2838.811523 
	C2199.990234,2838.773193 2194.886230,2842.045410 2193.986084,2846.669922 
	C2192.852295,2852.492432 2192.301270,2858.543213 2192.420410,2864.476807 
	C2193.489258,2917.717285 2204.229492,2969.032227 2224.748779,3018.119873 
	C2267.091309,3119.414795 2337.568604,3195.022461 2435.582275,3244.113770 
	C2520.578857,3286.685547 2610.884521,3298.112549 2704.205322,3282.656738 
	C2795.083740,3267.605225 2873.286377,3226.085449 2938.322754,3161.286621 
	C2995.714355,3104.104980 3034.156982,3035.438965 3053.831543,2956.577393 
	C3061.117920,2927.370850 3064.608643,2897.607178 3066.487793,2867.645996 
	C3066.899902,2861.077393 3066.358887,2854.319092 3065.241211,2847.822998 
	C3064.260742,2842.125000 3058.890869,2838.397217 3053.772949,2838.380127 
	C3048.691162,2838.363037 3043.470947,2842.084961 3042.108154,2847.683105 
	C3041.019775,2852.154297 3040.891113,2856.875488 3040.508789,2861.500000 
	C3039.247803,2876.754150 3038.604736,2892.080322 3036.758545,2907.261230 
	C3029.302246,2968.563477 3007.556885,3024.685791 2974.207520,3076.433594 
	C2947.197754,3118.343506 2913.313477,3153.844482 2871.033691,3185.262451 
M2241.454346,2676.914795 
	C2243.986572,2677.361084 2246.731201,2678.662842 2249.012207,2678.096680 
	C2256.496094,2676.241211 2260.167725,2669.922607 2258.176758,2663.458008 
	C2256.320068,2657.429688 2250.487793,2653.531006 2244.720459,2654.461914 
	C2237.993652,2655.547852 2233.797607,2661.439941 2235.128174,2668.912109 
	C2235.543701,2671.246582 2237.783447,2673.256104 2241.454346,2676.914795 
M2882.507568,2523.808594 
	C2885.548828,2526.013916 2888.322021,2529.403076 2891.689941,2530.164795 
	C2897.667480,2531.517090 2903.459717,2527.027832 2905.114014,2521.288818 
	C2906.566650,2516.250732 2904.133789,2510.645996 2899.325195,2507.951660 
	C2893.968994,2504.950684 2887.874512,2506.208008 2883.979248,2512.024170 
	C2882.319824,2514.501709 2882.354980,2518.113770 2882.507568,2523.808594 
M2629.170898,2438.385742 
	C2632.051270,2437.017822 2635.581787,2436.287598 2637.677979,2434.150635 
	C2642.198242,2429.543213 2641.876221,2423.137207 2637.758301,2418.283691 
	C2634.207031,2414.097656 2628.299072,2413.073975 2623.637695,2415.836426 
	C2618.217285,2419.048828 2615.375244,2425.349609 2618.186523,2430.808594 
	C2619.773682,2433.890625 2623.655518,2435.791016 2629.170898,2438.385742 
M2961.084229,2573.461182 
	C2958.641113,2574.209229 2955.628906,2574.297607 2953.859131,2575.825684 
	C2947.983154,2580.898682 2947.496338,2587.508057 2951.976318,2593.027832 
	C2955.995605,2597.979736 2962.769287,2599.009277 2967.650146,2595.409668 
	C2973.798828,2590.875000 2974.352783,2583.482910 2968.747559,2576.867432 
	C2967.572998,2575.480957 2965.434326,2574.911377 2961.084229,2573.461182 
M3031.141113,2757.390137 
	C3033.051514,2759.995117 3034.433838,2763.444092 3036.978271,2765.034912 
	C3042.864258,2768.714600 3049.247314,2767.084717 3052.776367,2761.936035 
	C3055.830078,2757.480957 3055.312256,2751.656982 3051.466064,2747.203613 
	C3047.320801,2742.403320 3040.747803,2741.635498 3035.501709,2746.232666 
	C3033.240967,2748.213623 3032.452393,2751.874756 3031.141113,2757.390137 
M2542.276611,2427.638184 
	C2538.114746,2424.642822 2533.683838,2424.149170 2529.179199,2426.631836 
	C2524.741211,2429.077393 2522.302734,2432.816895 2522.941162,2438.085205 
	C2523.626465,2443.738770 2527.630371,2447.817383 2533.249023,2448.660400 
	C2538.529053,2449.452637 2542.261475,2447.093994 2544.817139,2442.690430 
	C2547.398926,2438.241943 2547.155273,2433.827393 2542.276611,2427.638184 
M3022.882812,2663.009766 
	C3021.994629,2661.263184 3021.517334,2659.044434 3020.147217,2657.851074 
	C3014.029541,2652.522461 3007.219482,2652.677246 3002.877197,2657.896729 
	C2999.070068,2662.473389 2999.227783,2669.808838 3003.228516,2674.222656 
	C3007.808105,2679.275146 3014.977539,2678.996582 3020.426758,2673.017822 
	C3022.037354,2671.250732 3022.299805,2668.255127 3022.882812,2663.009766 
M2288.407959,2578.498779 
	C2285.371582,2582.583008 2284.465088,2586.912354 2287.185059,2591.491699 
	C2289.768799,2595.841309 2293.578613,2598.213135 2298.750732,2597.754395 
	C2304.108154,2597.279297 2308.694336,2592.769287 2309.332031,2587.406250 
	C2309.947266,2582.229004 2307.701416,2578.376465 2303.382568,2575.695068 
	C2298.856445,2572.885254 2294.510254,2573.706543 2288.407959,2578.498779 
M2715.737305,2446.054688 
	C2718.855713,2446.919434 2722.120850,2448.840820 2725.062256,2448.432129 
	C2731.487061,2447.539062 2735.417725,2441.720947 2734.940186,2435.510010 
	C2734.526367,2430.128174 2729.951416,2425.526123 2724.578613,2425.087158 
	C2718.417236,2424.583740 2712.495605,2428.528564 2711.578125,2434.891602 
	C2711.154297,2437.830078 2713.072510,2441.106201 2715.737305,2446.054688 
M2810.641846,2479.283447 
	C2813.758789,2478.658447 2817.432861,2478.869385 2819.879883,2477.239014 
	C2825.430176,2473.540283 2826.449707,2466.888916 2823.143799,2461.760254 
	C2820.332764,2457.399414 2814.514893,2455.466797 2809.321533,2457.168701 
	C2803.361328,2459.121826 2799.908447,2464.840088 2801.946533,2471.054688 
	C2802.862305,2473.846680 2805.868408,2475.953125 2810.641846,2479.283447 
M2220.399414,2766.249023 
	C2222.576904,2763.203369 2225.843750,2760.427979 2226.680908,2757.050049 
	C2227.989258,2751.771240 2224.134766,2746.851562 2218.942627,2745.102295 
	C2213.762207,2743.356934 2208.067871,2745.196289 2205.152832,2749.556396 
	C2202.190674,2753.986816 2202.507324,2760.100830 2207.081787,2763.591797 
	C2209.886475,2765.732422 2214.097900,2766.030029 2220.399414,2766.249023 
z"/>
<path fill="#EED7C9" opacity="1.000000" stroke="none" 
	d="
M2372.910156,2529.294678 
	C2381.035400,2529.992676 2384.562744,2523.884521 2388.434570,2518.557861 
	C2399.407227,2503.462158 2410.262695,2488.280273 2421.089600,2473.079590 
	C2465.946045,2410.102539 2510.797852,2347.122070 2555.598633,2284.105469 
	C2568.292725,2266.250488 2568.180420,2265.782471 2551.889404,2251.813232 
	C2545.898438,2246.676025 2539.820557,2241.640381 2534.873535,2237.476807 
	C2526.552979,2237.880615 2524.256836,2243.302246 2520.829102,2247.145996 
	C2489.750732,2281.995361 2453.552246,2310.093506 2409.928711,2327.160156 
	C2312.982178,2365.088379 2221.597900,2353.455078 2137.038574,2292.927002 
	C2117.610352,2279.020020 2100.383789,2262.032715 2082.199463,2246.398682 
	C2080.192627,2244.673340 2078.419189,2242.627197 2076.768555,2240.546631 
	C2072.526611,2235.201660 2072.449463,2229.564209 2076.085693,2223.880859 
	C2077.519775,2221.639404 2079.098877,2219.481689 2080.729248,2217.376465 
	C2122.927979,2162.888672 2176.435059,2124.499023 2243.691895,2108.197998 
	C2333.790039,2086.360840 2415.370605,2106.411377 2488.165527,2163.233154 
	C2497.084717,2170.195312 2505.340088,2178.005615 2513.960205,2185.355957 
	C2517.459473,2188.339600 2521.111328,2191.144287 2525.545166,2194.716553 
	C2528.789795,2191.892578 2532.254150,2189.868164 2534.369629,2186.886719 
	C2564.275146,2144.739502 2582.921875,2098.064209 2588.270508,2046.612793 
	C2590.608154,2024.129761 2591.036865,2001.406494 2591.454834,1978.776123 
	C2591.971924,1950.786499 2591.648682,1922.779663 2591.521729,1894.781006 
	C2591.491943,1888.237915 2590.789307,1881.697998 2590.413330,1875.442749 
	C2581.704102,1869.752808 2572.752441,1869.978516 2564.395020,1868.954956 
	C2501.006104,1861.192749 2445.197266,1836.334839 2396.825195,1794.892090 
	C2384.987305,1784.750000 2372.035156,1777.673218 2357.464600,1772.081177 
	C2300.847900,1750.352173 2250.339355,1718.870850 2206.283447,1676.754883 
	C2141.727295,1615.041260 2098.150879,1540.327271 2067.347168,1457.417236 
	C2046.353882,1400.911987 2033.268311,1342.462402 2025.469604,1282.789185 
	C2024.264282,1273.566040 2023.897339,1264.171265 2023.954956,1254.860840 
	C2024.029907,1242.739258 2028.483643,1238.288208 2040.866089,1237.361694 
	C2046.825439,1236.915649 2052.870850,1237.085571 2058.845703,1237.468384 
	C2105.762451,1240.474609 2151.443604,1248.742432 2194.135498,1269.601807 
	C2195.882080,1270.455322 2197.923828,1270.704590 2199.847656,1271.240723 
	C2207.934570,1269.918213 2212.052734,1263.319702 2217.126953,1258.292603 
	C2244.120850,1231.548950 2270.904785,1204.593750 2297.815674,1177.766113 
	C2302.058105,1173.536987 2306.299561,1169.221313 2311.040283,1165.598877 
	C2317.211426,1160.883301 2323.055420,1161.020386 2329.373291,1165.955933 
	C2334.078857,1169.632080 2338.306885,1173.950806 2342.550537,1178.181030 
	C2367.572754,1203.125977 2392.508789,1228.157593 2417.546387,1253.087524 
	C2422.678467,1258.197510 2428.118164,1262.998657 2432.658447,1267.235229 
	C2442.618652,1266.476562 2446.634766,1259.664917 2451.670654,1254.657959 
	C2494.690918,1211.885376 2537.550537,1168.951416 2580.474121,1126.081665 
	C2584.717773,1121.843384 2588.833740,1117.432373 2593.418701,1113.590576 
	C2601.162842,1107.101929 2606.735596,1107.262817 2614.712646,1114.034668 
	C2618.767822,1117.477173 2622.426514,1121.394165 2626.198730,1125.162476 
	C2669.117920,1168.036377 2711.983643,1210.964111 2754.988525,1253.751953 
	C2760.069092,1258.806885 2764.260010,1265.224731 2771.781982,1267.207153 
	C2779.208252,1265.895386 2783.055664,1260.046875 2787.669922,1255.465942 
	C2813.217041,1230.103638 2838.619141,1204.594971 2864.072266,1179.137939 
	C2866.900391,1176.309326 2869.669922,1173.417725 2872.580811,1170.676758 
	C2885.044434,1158.940796 2890.181152,1158.596802 2902.830566,1171.010864 
	C2931.853027,1199.493408 2960.424805,1228.434814 2989.248047,1257.120850 
	C2994.367920,1262.216553 2999.819580,1266.979370 3005.397949,1272.155884 
	C3011.302490,1269.910400 3016.287109,1268.260742 3021.071289,1266.155396 
	C3054.319336,1251.523071 3088.969727,1242.541504 3125.234375,1239.844360 
	C3132.542480,1239.300781 3139.800293,1237.938721 3147.110596,1237.616943 
	C3155.076660,1237.266479 3163.136475,1237.113647 3171.045410,1237.934570 
	C3178.890625,1238.748779 3183.057861,1243.354614 3183.489014,1251.161621 
	C3183.891357,1258.452637 3183.848877,1265.872559 3182.980713,1273.113281 
	C3172.184814,1363.171509 3149.188477,1449.686646 3108.110596,1530.994995 
	C3078.334717,1589.932617 3039.844238,1642.203125 2990.781982,1686.553345 
	C2947.180664,1725.967041 2897.338867,1754.984741 2842.255615,1775.022949 
	C2831.370605,1778.982666 2822.121094,1784.477173 2813.457764,1792.203491 
	C2766.385498,1834.184814 2711.324463,1859.207153 2648.902588,1868.112305 
	C2639.073242,1869.514526 2629.269043,1871.093872 2620.806152,1872.385010 
	C2614.658936,1880.382690 2616.205322,1887.972290 2616.173096,1895.143066 
	C2615.992920,1935.141113 2616.285645,1975.142822 2615.868164,2015.137573 
	C2615.722656,2029.085693 2614.765381,2043.119751 2612.883789,2056.938232 
	C2606.117188,2106.632568 2588.304932,2152.209473 2560.531250,2193.963135 
	C2547.225830,2213.965576 2547.333008,2214.103760 2565.667236,2229.434082 
	C2570.688477,2233.632568 2575.996826,2237.487549 2580.141357,2240.699951 
	C2590.227539,2239.201904 2594.048340,2232.354736 2598.959717,2227.154541 
	C2618.722168,2206.229248 2639.947754,2187.138184 2664.595703,2172.003418 
	C2710.465576,2143.837891 2759.780029,2128.294189 2814.030029,2127.592285 
	C2891.312988,2126.592529 2957.139893,2154.079102 3014.345215,2204.630371 
	C3022.335938,2211.691650 3030.380859,2218.691895 3038.317627,2225.813232 
	C3041.788086,2228.927002 3045.229980,2232.108887 3048.369385,2235.548096 
	C3056.212891,2244.140381 3056.533203,2248.554199 3049.624512,2258.508301 
	C3045.449707,2264.523438 3040.966553,2270.372559 3036.160156,2275.894287 
	C2992.908447,2325.582031 2940.015137,2360.296387 2875.591309,2375.245117 
	C2786.145996,2396.000488 2705.168945,2375.925781 2632.385986,2320.951904 
	C2622.303955,2313.336914 2613.010498,2304.661133 2603.507324,2296.300293 
	C2589.498047,2283.975098 2587.033936,2284.136963 2575.664795,2299.877930 
	C2562.005127,2318.790039 2548.544922,2337.846191 2535.010254,2356.848389 
	C2513.355225,2387.250488 2491.624756,2417.599365 2470.129395,2448.114014 
	C2465.548584,2454.616943 2461.838867,2461.733643 2457.726074,2468.566406 
	C2456.021973,2471.397949 2454.667725,2474.529785 2452.551758,2477.010986 
	C2420.490234,2514.607178 2391.712646,2554.595703 2367.615723,2597.695801 
	C2343.619629,2640.616211 2329.704102,2686.963379 2323.128174,2735.779053 
	C2317.354736,2778.636230 2318.664307,2821.019287 2329.220703,2862.805176 
	C2347.866943,2936.610840 2387.938721,2996.473389 2449.325684,3041.672607 
	C2496.598145,3076.479736 2549.557129,3096.033203 2608.165283,3101.560059 
	C2671.884766,3107.569336 2730.241699,3093.761719 2782.184814,3056.439209 
	C2838.374023,3016.065674 2872.382812,2961.237549 2884.135010,2892.842041 
	C2888.343750,2868.346680 2889.454102,2843.895020 2884.604980,2819.300781 
	C2868.845703,2739.369141 2821.808838,2687.192627 2744.572021,2662.530273 
	C2712.838135,2652.397461 2680.025879,2650.982910 2647.919678,2660.381348 
	C2590.122559,2677.300537 2553.268066,2715.664307 2537.968750,2773.915527 
	C2532.493408,2794.761719 2532.499512,2816.365723 2536.842773,2837.443115 
	C2548.104492,2892.095459 2599.185547,2932.398926 2655.343994,2932.334229 
	C2695.681885,2932.288086 2747.052246,2904.841064 2750.583252,2840.840088 
	C2752.780518,2801.006836 2725.728760,2772.477783 2690.073975,2764.883057 
	C2684.879395,2763.776367 2679.466797,2763.647949 2674.310547,2762.416260 
	C2668.617920,2761.056641 2664.998779,2755.825928 2665.363037,2750.674072 
	C2665.736328,2745.397217 2669.666016,2740.174561 2674.935547,2739.173340 
	C2678.781738,2738.442871 2682.889648,2738.334717 2686.791016,2738.765137 
	C2742.789551,2744.944092 2776.162109,2791.893799 2776.217041,2837.304443 
	C2776.307861,2912.255127 2708.597412,2964.946533 2641.094238,2957.137207 
	C2574.841064,2949.472412 2521.408691,2901.256348 2510.166016,2835.467041 
	C2503.558105,2796.799072 2510.996338,2759.932617 2529.181885,2725.135498 
	C2567.972168,2650.913086 2651.587891,2619.777588 2718.880859,2630.755371 
	C2770.823242,2639.228760 2815.482178,2660.475342 2851.523682,2698.687256 
	C2890.061279,2739.545654 2910.854736,2787.995605 2912.426270,2844.670166 
	C2914.531250,2920.579102 2889.166504,2986.257324 2838.086426,3041.449463 
	C2797.579590,3085.217529 2747.134521,3113.088623 2688.103271,3123.639404 
	C2628.258789,3134.335449 2569.460449,3128.433838 2513.395264,3105.369873 
	C2390.472168,3054.802246 2317.810059,2962.923096 2297.592285,2831.747314 
	C2286.704102,2761.103271 2299.184814,2692.335693 2325.711914,2626.134521 
	C2336.166748,2600.043213 2349.654785,2575.563477 2364.893066,2551.999268 
	C2368.848633,2545.882568 2373.657471,2540.121338 2373.567383,2530.682129 
	C2373.161865,2529.054688 2372.910156,2529.294678 2372.910156,2529.294678 
M2372.468018,1733.348755 
	C2414.270996,1785.435669 2467.090088,1820.715576 2532.053711,1836.969116 
	C2546.197754,1840.507935 2560.787598,1842.699829 2575.307861,1844.168945 
	C2588.079346,1845.460938 2590.776123,1842.389771 2591.410156,1830.031982 
	C2591.682861,1824.715698 2591.556885,1819.377197 2591.557129,1814.048828 
	C2591.570557,1604.226929 2591.579346,1394.405151 2591.579102,1184.583252 
	C2591.579102,1178.589233 2591.787842,1172.568848 2591.287109,1166.612305 
	C2591.044189,1163.723633 2589.381836,1160.954346 2588.367188,1158.145386 
	C2579.923340,1159.933716 2576.164307,1165.856812 2571.560547,1170.448608 
	C2513.551514,1228.306396 2455.571045,1286.193481 2397.782471,1344.271240 
	C2388.881348,1353.216919 2380.438721,1362.737427 2372.703125,1372.705566 
	C2323.293945,1436.376343 2303.888916,1508.874023 2312.686523,1588.431030 
	C2318.507812,1641.075562 2338.305908,1688.842407 2372.468018,1733.348755 
M2616.231689,1634.000000 
	C2616.232422,1695.955078 2616.261963,1757.910156 2616.219727,1819.865234 
	C2616.203613,1843.619385 2615.874756,1847.396851 2644.277588,1843.181274 
	C2709.566162,1833.491333 2765.850830,1805.596191 2812.616699,1758.551636 
	C2898.395508,1672.262207 2920.332764,1540.684204 2870.354248,1431.031494 
	C2854.673584,1396.628174 2832.598389,1366.837158 2806.004150,1340.229858 
	C2749.490723,1283.688354 2692.928223,1227.196289 2636.380127,1170.689453 
	C2633.552979,1167.864502 2630.872803,1164.838745 2627.750977,1162.380493 
	C2625.408447,1160.535889 2622.466064,1159.453003 2619.974609,1158.128662 
	C2618.363525,1160.347778 2616.968018,1161.372192 2616.965820,1162.399536 
	C2616.655518,1318.266235 2616.446289,1474.133179 2616.231689,1634.000000 
M3058.032959,1567.828003 
	C3068.998535,1548.022217 3080.616455,1528.545288 3090.802490,1508.346313 
	C3117.079834,1456.237793 3133.990967,1400.855713 3146.012695,1343.935791 
	C3149.864014,1325.701416 3152.739746,1307.240723 3155.431885,1288.791626 
	C3156.545898,1281.158203 3158.421143,1272.963379 3152.152100,1264.712280 
	C3146.736328,1264.503052 3140.807861,1263.666504 3134.989746,1264.151855 
	C3105.680420,1266.597412 3076.695801,1271.222168 3049.146240,1281.849609 
	C3016.408936,1294.478394 2986.902832,1312.109741 2964.462646,1339.998535 
	C2936.795898,1374.383423 2922.030029,1413.882568 2919.729736,1457.580811 
	C2918.472900,1481.454712 2919.020264,1505.621948 2921.205811,1529.431641 
	C2924.360840,1563.800659 2920.480713,1597.239502 2912.580078,1630.445435 
	C2904.957031,1662.485352 2891.401123,1692.110840 2874.901611,1720.486328 
	C2872.753662,1724.180176 2871.325439,1728.292480 2869.615967,1732.095215 
	C2871.478760,1733.109985 2872.114746,1733.762695 2872.574951,1733.656372 
	C2875.128662,1733.065063 2877.852539,1732.699829 2880.133545,1731.516235 
	C2917.585449,1712.084961 2952.240479,1688.705688 2982.967041,1659.573364 
	C3011.189209,1632.815796 3035.326660,1602.800293 3058.032959,1567.828003 
M2058.234131,1327.238403 
	C2058.738281,1329.854858 2059.235840,1332.472656 2059.747559,1335.087524 
	C2074.708252,1411.526733 2099.968262,1484.170654 2139.479980,1551.569702 
	C2173.273682,1609.214966 2215.986816,1658.968994 2270.949463,1697.352051 
	C2289.453369,1710.274048 2309.617676,1720.828003 2329.122559,1732.295532 
	C2331.772461,1733.853516 2335.083984,1735.572754 2338.397949,1730.833984 
	C2335.438232,1725.529175 2332.054443,1719.902588 2329.090088,1714.063232 
	C2322.163330,1700.418945 2314.431641,1687.071167 2308.813477,1672.895020 
	C2289.120605,1623.205811 2280.618896,1571.940918 2287.002930,1518.294800 
	C2290.628906,1487.826782 2290.481445,1457.114502 2283.766357,1426.811768 
	C2269.405518,1362.007202 2233.223145,1314.702637 2171.998047,1287.589478 
	C2140.575684,1273.674194 2107.297119,1267.267090 2073.289795,1264.162354 
	C2068.682373,1263.741577 2063.953857,1263.950317 2059.344727,1264.450806 
	C2054.891113,1264.934204 2051.844238,1267.988403 2051.814697,1272.388794 
	C2051.760986,1280.349243 2052.074951,1288.362183 2052.990234,1296.265869 
	C2054.061523,1305.517090 2055.939209,1314.674805 2058.234131,1327.238403 
M2718.916504,2172.292236 
	C2711.106445,2176.042725 2703.227539,2179.657471 2695.498047,2183.567383 
	C2663.509277,2199.749512 2636.678711,2222.499268 2613.109619,2249.205566 
	C2604.974609,2258.423584 2605.075684,2263.286377 2613.950439,2271.432373 
	C2631.615967,2287.647461 2649.391602,2303.757080 2669.924316,2316.508301 
	C2729.909180,2353.760986 2794.671143,2365.843506 2863.681396,2351.826172 
	C2922.431152,2339.892578 2971.022705,2309.378418 3011.551758,2265.683105 
	C3015.966797,2260.923096 3020.977539,2256.201172 3022.207275,2248.124756 
	C3020.040039,2245.571289 3017.814697,2242.234863 3014.915527,2239.656006 
	C3001.975098,2228.147705 2989.497803,2215.978516 2975.659668,2205.646240 
	C2929.407227,2171.111328 2877.129883,2153.028564 2819.362061,2152.388916 
	C2785.725098,2152.016357 2753.154785,2158.917969 2718.916504,2172.292236 
M2411.513672,2145.873779 
	C2368.745850,2128.716064 2324.990967,2120.556885 2278.592285,2127.191650 
	C2211.439209,2136.793701 2156.976318,2168.537842 2112.259766,2218.445312 
	C2109.304443,2221.743652 2107.547363,2226.115723 2104.989990,2230.394775 
	C2108.108643,2233.995605 2110.361572,2237.348633 2113.317139,2239.881592 
	C2126.967041,2251.578613 2140.100586,2264.050293 2154.713379,2274.420898 
	C2211.558594,2314.764404 2274.499268,2331.650879 2343.852783,2319.855957 
	C2407.425781,2309.044189 2459.943115,2278.257812 2501.875732,2229.396729 
	C2504.731689,2226.068359 2506.405029,2221.724609 2509.098145,2217.035400 
	C2481.208008,2187.585205 2450.591553,2163.587646 2411.513672,2145.873779 
M2387.504639,1258.495117 
	C2376.681396,1247.674194 2366.047607,1236.655029 2354.982422,1226.087280 
	C2343.583008,1215.200195 2333.777344,1202.486694 2320.061035,1193.589966 
	C2317.161133,1195.497192 2314.687500,1196.599243 2312.891846,1198.383545 
	C2286.460205,1224.648926 2260.067627,1250.953857 2233.835449,1277.417725 
	C2231.196289,1280.080078 2229.658203,1283.833862 2227.916748,1286.593506 
	C2230.776367,1295.189819 2237.467285,1298.979492 2242.738525,1303.802246 
	C2266.757324,1325.777832 2284.692627,1351.851562 2296.165283,1382.268677 
	C2300.148926,1392.830078 2303.119873,1403.770020 2306.756348,1414.468018 
	C2307.693115,1417.223633 2306.822510,1421.381592 2312.423340,1422.107788 
	C2314.799561,1417.808716 2317.424805,1413.311646 2319.814209,1408.692749 
	C2332.102783,1384.940918 2346.737061,1362.717285 2364.596680,1342.836792 
	C2376.590576,1329.485596 2389.718750,1317.158936 2402.147949,1304.190552 
	C2406.645508,1299.497925 2412.631592,1295.840576 2414.510254,1287.316528 
	C2408.136230,1277.375122 2397.996582,1269.652222 2387.504639,1258.495117 
M2807.588623,1306.429199 
	C2814.630371,1313.491943 2821.808838,1320.424927 2828.673828,1327.655273 
	C2835.075195,1334.397705 2841.380859,1341.260376 2847.293701,1348.429199 
	C2853.631348,1356.113525 2859.742676,1364.020752 2865.430908,1372.193848 
	C2870.739014,1379.820312 2875.142334,1388.072144 2880.347900,1395.775635 
	C2885.748047,1403.766602 2888.378662,1413.674683 2897.310547,1421.967285 
	C2899.840820,1414.703979 2901.883057,1409.350952 2903.579346,1403.890503 
	C2916.479248,1362.370605 2937.345459,1325.989746 2971.253418,1297.844238 
	C2974.628906,1295.042358 2977.010986,1291.043701 2979.975098,1287.454102 
	C2977.951172,1284.369629 2976.845215,1281.873291 2975.046875,1280.065430 
	C2948.789307,1253.668457 2922.500000,1227.302246 2896.016357,1201.132812 
	C2893.399170,1198.546631 2889.457520,1197.300293 2885.232178,1194.927734 
	C2855.538574,1221.434692 2828.984619,1250.247925 2801.073730,1277.645142 
	C2797.876953,1280.783325 2795.517090,1284.774536 2793.197266,1287.810303 
	C2795.228027,1295.975342 2801.346436,1299.477783 2807.588623,1306.429199 
z"/>
<path fill="#EED7C9" opacity="1.000000" stroke="none" 
	d="
M2872.205078,3184.442871 
	C2913.313477,3153.844482 2947.197754,3118.343506 2974.207520,3076.433594 
	C3007.556885,3024.685791 3029.302246,2968.563477 3036.758545,2907.261230 
	C3038.604736,2892.080322 3039.247803,2876.754150 3040.508789,2861.500000 
	C3040.891113,2856.875488 3041.019775,2852.154297 3042.108154,2847.683105 
	C3043.470947,2842.084961 3048.691162,2838.363037 3053.772949,2838.380127 
	C3058.890869,2838.397217 3064.260742,2842.125000 3065.241211,2847.822998 
	C3066.358887,2854.319092 3066.899902,2861.077393 3066.487793,2867.645996 
	C3064.608643,2897.607178 3061.117920,2927.370850 3053.831543,2956.577393 
	C3034.156982,3035.438965 2995.714355,3104.104980 2938.322754,3161.286621 
	C2873.286377,3226.085449 2795.083740,3267.605225 2704.205322,3282.656738 
	C2610.884521,3298.112549 2520.578857,3286.685547 2435.582275,3244.113770 
	C2337.568604,3195.022461 2267.091309,3119.414795 2224.748779,3018.119873 
	C2204.229492,2969.032227 2193.489258,2917.717285 2192.420410,2864.476807 
	C2192.301270,2858.543213 2192.852295,2852.492432 2193.986084,2846.669922 
	C2194.886230,2842.045410 2199.990234,2838.773193 2204.452637,2838.811523 
	C2209.581299,2838.855469 2214.104980,2841.078125 2215.458740,2845.875244 
	C2217.239258,2852.183838 2218.294434,2858.891602 2218.390625,2865.446533 
	C2218.772705,2891.548340 2221.759766,2917.298340 2227.604004,2942.720703 
	C2244.250000,3015.131104 2277.452393,3078.710938 2328.694580,3132.758301 
	C2357.775146,3163.431152 2389.894775,3190.085938 2427.004395,3210.683105 
	C2477.233643,3238.561523 2530.699219,3255.241699 2587.891846,3261.390381 
	C2649.409668,3268.003906 2708.891113,3259.931885 2766.990234,3239.999268 
	C2804.427246,3227.155518 2838.989502,3208.521240 2872.205078,3184.442871 
z"/>
<path fill="#EDD6C8" opacity="1.000000" stroke="none" 
	d="
M2240.321289,2676.164551 
	C2237.783447,2673.256104 2235.543701,2671.246582 2235.128174,2668.912109 
	C2233.797607,2661.439941 2237.993652,2655.547852 2244.720459,2654.461914 
	C2250.487793,2653.531006 2256.320068,2657.429688 2258.176758,2663.458008 
	C2260.167725,2669.922607 2256.496094,2676.241211 2249.012207,2678.096680 
	C2246.731201,2678.662842 2243.986572,2677.361084 2240.321289,2676.164551 
z"/>
<path fill="#EDD6C8" opacity="1.000000" stroke="none" 
	d="
M2882.063965,2522.509521 
	C2882.354980,2518.113770 2882.319824,2514.501709 2883.979248,2512.024170 
	C2887.874512,2506.208008 2893.968994,2504.950684 2899.325195,2507.951660 
	C2904.133789,2510.645996 2906.566650,2516.250732 2905.114014,2521.288818 
	C2903.459717,2527.027832 2897.667480,2531.517090 2891.689941,2530.164795 
	C2888.322021,2529.403076 2885.548828,2526.013916 2882.063965,2522.509521 
z"/>
<path fill="#EDD6C8" opacity="1.000000" stroke="none" 
	d="
M2627.837402,2438.304688 
	C2623.655518,2435.791016 2619.773682,2433.890625 2618.186523,2430.808594 
	C2615.375244,2425.349609 2618.217285,2419.048828 2623.637695,2415.836426 
	C2628.299072,2413.073975 2634.207031,2414.097656 2637.758301,2418.283691 
	C2641.876221,2423.137207 2642.198242,2429.543213 2637.677979,2434.150635 
	C2635.581787,2436.287598 2632.051270,2437.017822 2627.837402,2438.304688 
z"/>
<path fill="#EDD6C8" opacity="1.000000" stroke="none" 
	d="
M2962.412109,2573.713379 
	C2965.434326,2574.911377 2967.572998,2575.480957 2968.747559,2576.867432 
	C2974.352783,2583.482910 2973.798828,2590.875000 2967.650146,2595.409668 
	C2962.769287,2599.009277 2955.995605,2597.979736 2951.976318,2593.027832 
	C2947.496338,2587.508057 2947.983154,2580.898682 2953.859131,2575.825684 
	C2955.628906,2574.297607 2958.641113,2574.209229 2962.412109,2573.713379 
z"/>
<path fill="#EDD6C8" opacity="1.000000" stroke="none" 
	d="
M3031.068115,2756.081543 
	C3032.452393,2751.874756 3033.240967,2748.213623 3035.501709,2746.232666 
	C3040.747803,2741.635498 3047.320801,2742.403320 3051.466064,2747.203613 
	C3055.312256,2751.656982 3055.830078,2757.480957 3052.776367,2761.936035 
	C3049.247314,2767.084717 3042.864258,2768.714600 3036.978271,2765.034912 
	C3034.433838,2763.444092 3033.051514,2759.995117 3031.068115,2756.081543 
z"/>
<path fill="#EDD6C8" opacity="1.000000" stroke="none" 
	d="
M2543.243408,2428.612305 
	C2547.155273,2433.827393 2547.398926,2438.241943 2544.817139,2442.690430 
	C2542.261475,2447.093994 2538.529053,2449.452637 2533.249023,2448.660400 
	C2527.630371,2447.817383 2523.626465,2443.738770 2522.941162,2438.085205 
	C2522.302734,2432.816895 2524.741211,2429.077393 2529.179199,2426.631836 
	C2533.683838,2424.149170 2538.114746,2424.642822 2543.243408,2428.612305 
z"/>
<path fill="#EDD6C8" opacity="1.000000" stroke="none" 
	d="
M3023.031738,2664.416016 
	C3022.299805,2668.255127 3022.037354,2671.250732 3020.426758,2673.017822 
	C3014.977539,2678.996582 3007.808105,2679.275146 3003.228516,2674.222656 
	C2999.227783,2669.808838 2999.070068,2662.473389 3002.877197,2657.896729 
	C3007.219482,2652.677246 3014.029541,2652.522461 3020.147217,2657.851074 
	C3021.517334,2659.044434 3021.994629,2661.263184 3023.031738,2664.416016 
z"/>
<path fill="#EDD6C8" opacity="1.000000" stroke="none" 
	d="
M2289.373535,2577.544678 
	C2294.510254,2573.706543 2298.856445,2572.885254 2303.382568,2575.695068 
	C2307.701416,2578.376465 2309.947266,2582.229004 2309.332031,2587.406250 
	C2308.694336,2592.769287 2304.108154,2597.279297 2298.750732,2597.754395 
	C2293.578613,2598.213135 2289.768799,2595.841309 2287.185059,2591.491699 
	C2284.465088,2586.912354 2285.371582,2582.583008 2289.373535,2577.544678 
z"/>
<path fill="#EDD6C8" opacity="1.000000" stroke="none" 
	d="
M2714.833008,2445.142090 
	C2713.072510,2441.106201 2711.154297,2437.830078 2711.578125,2434.891602 
	C2712.495605,2428.528564 2718.417236,2424.583740 2724.578613,2425.087158 
	C2729.951416,2425.526123 2734.526367,2430.128174 2734.940186,2435.510010 
	C2735.417725,2441.720947 2731.487061,2447.539062 2725.062256,2448.432129 
	C2722.120850,2448.840820 2718.855713,2446.919434 2714.833008,2445.142090 
z"/>
<path fill="#EDD6C8" opacity="1.000000" stroke="none" 
	d="
M2809.283936,2478.827148 
	C2805.868408,2475.953125 2802.862305,2473.846680 2801.946533,2471.054688 
	C2799.908447,2464.840088 2803.361328,2459.121826 2809.321533,2457.168701 
	C2814.514893,2455.466797 2820.332764,2457.399414 2823.143799,2461.760254 
	C2826.449707,2466.888916 2825.430176,2473.540283 2819.879883,2477.239014 
	C2817.432861,2478.869385 2813.758789,2478.658447 2809.283936,2478.827148 
z"/>
<path fill="#EDD6C8" opacity="1.000000" stroke="none" 
	d="
M2219.038574,2766.702148 
	C2214.097900,2766.030029 2209.886475,2765.732422 2207.081787,2763.591797 
	C2202.507324,2760.100830 2202.190674,2753.986816 2205.152832,2749.556396 
	C2208.067871,2745.196289 2213.762207,2743.356934 2218.942627,2745.102295 
	C2224.134766,2746.851562 2227.989258,2751.771240 2226.680908,2757.050049 
	C2225.843750,2760.427979 2222.576904,2763.203369 2219.038574,2766.702148 
z"/>
<path fill="#EDD6C8" opacity="1.000000" stroke="none" 
	d="
M2373.543945,2527.763672 
	C2372.910156,2529.294678 2373.161865,2529.054688 2373.225098,2528.994385 
	C2368.781982,2529.138184 2364.053955,2530.290771 2359.824707,2529.304932 
	C2354.585938,2528.083984 2351.952393,2521.818848 2353.305176,2516.486572 
	C2354.535400,2511.638184 2357.468994,2508.269043 2362.541016,2507.226807 
	C2367.816650,2506.142090 2373.144043,2509.247070 2374.967529,2514.641357 
	C2375.582031,2516.459473 2375.713135,2518.552734 2375.570557,2520.483887 
	C2375.427246,2522.424072 2374.667480,2524.318604 2373.543945,2527.763672 
z"/>
<path fill="#C59680" opacity="1.000000" stroke="none" 
	d="
M2371.621826,1732.195190 
	C2338.305908,1688.842407 2318.507812,1641.075562 2312.686523,1588.431030 
	C2303.888916,1508.874023 2323.293945,1436.376343 2372.703125,1372.705566 
	C2380.438721,1362.737427 2388.881348,1353.216919 2397.782471,1344.271240 
	C2455.571045,1286.193481 2513.551514,1228.306396 2571.560547,1170.448608 
	C2576.164307,1165.856812 2579.923340,1159.933716 2588.367188,1158.145386 
	C2589.381836,1160.954346 2591.044189,1163.723633 2591.287109,1166.612305 
	C2591.787842,1172.568848 2591.579102,1178.589233 2591.579102,1184.583252 
	C2591.579346,1394.405151 2591.570557,1604.226929 2591.557129,1814.048828 
	C2591.556885,1819.377197 2591.682861,1824.715698 2591.410156,1830.031982 
	C2590.776123,1842.389771 2588.079346,1845.460938 2575.307861,1844.168945 
	C2560.787598,1842.699829 2546.197754,1840.507935 2532.053711,1836.969116 
	C2467.090088,1820.715576 2414.270996,1785.435669 2371.621826,1732.195190 
z"/>
<path fill="#C59680" opacity="1.000000" stroke="none" 
	d="
M2616.231934,1632.000000 
	C2616.446289,1474.133179 2616.655518,1318.266235 2616.965820,1162.399536 
	C2616.968018,1161.372192 2618.363525,1160.347778 2619.974609,1158.128662 
	C2622.466064,1159.453003 2625.408447,1160.535889 2627.750977,1162.380493 
	C2630.872803,1164.838745 2633.552979,1167.864502 2636.380127,1170.689453 
	C2692.928223,1227.196289 2749.490723,1283.688354 2806.004150,1340.229858 
	C2832.598389,1366.837158 2854.673584,1396.628174 2870.354248,1431.031494 
	C2920.332764,1540.684204 2898.395508,1672.262207 2812.616699,1758.551636 
	C2765.850830,1805.596191 2709.566162,1833.491333 2644.277588,1843.181274 
	C2615.874756,1847.396851 2616.203613,1843.619385 2616.219727,1819.865234 
	C2616.261963,1757.910156 2616.232422,1695.955078 2616.231934,1632.000000 
z"/>
<path fill="#C59680" opacity="1.000000" stroke="none" 
	d="
M3057.238037,1569.038574 
	C3035.326660,1602.800293 3011.189209,1632.815796 2982.967041,1659.573364 
	C2952.240479,1688.705688 2917.585449,1712.084961 2880.133545,1731.516235 
	C2877.852539,1732.699829 2875.128662,1733.065063 2872.574951,1733.656372 
	C2872.114746,1733.762695 2871.478760,1733.109985 2869.615967,1732.095215 
	C2871.325439,1728.292480 2872.753662,1724.180176 2874.901611,1720.486328 
	C2891.401123,1692.110840 2904.957031,1662.485352 2912.580078,1630.445435 
	C2920.480713,1597.239502 2924.360840,1563.800659 2921.205811,1529.431641 
	C2919.020264,1505.621948 2918.472900,1481.454712 2919.729736,1457.580811 
	C2922.030029,1413.882568 2936.795898,1374.383423 2964.462646,1339.998535 
	C2986.902832,1312.109741 3016.408936,1294.478394 3049.146240,1281.849609 
	C3076.695801,1271.222168 3105.680420,1266.597412 3134.989746,1264.151855 
	C3140.807861,1263.666504 3146.736328,1264.503052 3152.152100,1264.712280 
	C3158.421143,1272.963379 3156.545898,1281.158203 3155.431885,1288.791626 
	C3152.739746,1307.240723 3149.864014,1325.701416 3146.012695,1343.935791 
	C3133.990967,1400.855713 3117.079834,1456.237793 3090.802490,1508.346313 
	C3080.616455,1528.545288 3068.998535,1548.022217 3057.238037,1569.038574 
z"/>
<path fill="#C59680" opacity="1.000000" stroke="none" 
	d="
M2057.850586,1325.555664 
	C2055.939209,1314.674805 2054.061523,1305.517090 2052.990234,1296.265869 
	C2052.074951,1288.362183 2051.760986,1280.349243 2051.814697,1272.388794 
	C2051.844238,1267.988403 2054.891113,1264.934204 2059.344727,1264.450806 
	C2063.953857,1263.950317 2068.682373,1263.741577 2073.289795,1264.162354 
	C2107.297119,1267.267090 2140.575684,1273.674194 2171.998047,1287.589478 
	C2233.223145,1314.702637 2269.405518,1362.007202 2283.766357,1426.811768 
	C2290.481445,1457.114502 2290.628906,1487.826782 2287.002930,1518.294800 
	C2280.618896,1571.940918 2289.120605,1623.205811 2308.813477,1672.895020 
	C2314.431641,1687.071167 2322.163330,1700.418945 2329.090088,1714.063232 
	C2332.054443,1719.902588 2335.438232,1725.529175 2338.397949,1730.833984 
	C2335.083984,1735.572754 2331.772461,1733.853516 2329.122559,1732.295532 
	C2309.617676,1720.828003 2289.453369,1710.274048 2270.949463,1697.352051 
	C2215.986816,1658.968994 2173.273682,1609.214966 2139.479980,1551.569702 
	C2099.968262,1484.170654 2074.708252,1411.526733 2059.747559,1335.087524 
	C2059.235840,1332.472656 2058.738281,1329.854858 2057.850586,1325.555664 
z"/>
<path fill="#C59680" opacity="1.000000" stroke="none" 
	d="
M2720.339844,2171.703369 
	C2753.154785,2158.917969 2785.725098,2152.016357 2819.362061,2152.388916 
	C2877.129883,2153.028564 2929.407227,2171.111328 2975.659668,2205.646240 
	C2989.497803,2215.978516 3001.975098,2228.147705 3014.915527,2239.656006 
	C3017.814697,2242.234863 3020.040039,2245.571289 3022.207275,2248.124756 
	C3020.977539,2256.201172 3015.966797,2260.923096 3011.551758,2265.683105 
	C2971.022705,2309.378418 2922.431152,2339.892578 2863.681396,2351.826172 
	C2794.671143,2365.843506 2729.909180,2353.760986 2669.924316,2316.508301 
	C2649.391602,2303.757080 2631.615967,2287.647461 2613.950439,2271.432373 
	C2605.075684,2263.286377 2604.974609,2258.423584 2613.109619,2249.205566 
	C2636.678711,2222.499268 2663.509277,2199.749512 2695.498047,2183.567383 
	C2703.227539,2179.657471 2711.106445,2176.042725 2720.339844,2171.703369 
z"/>
<path fill="#C59680" opacity="1.000000" stroke="none" 
	d="
M2412.901367,2146.515625 
	C2450.591553,2163.587646 2481.208008,2187.585205 2509.098145,2217.035400 
	C2506.405029,2221.724609 2504.731689,2226.068359 2501.875732,2229.396729 
	C2459.943115,2278.257812 2407.425781,2309.044189 2343.852783,2319.855957 
	C2274.499268,2331.650879 2211.558594,2314.764404 2154.713379,2274.420898 
	C2140.100586,2264.050293 2126.967041,2251.578613 2113.317139,2239.881592 
	C2110.361572,2237.348633 2108.108643,2233.995605 2104.989990,2230.394775 
	C2107.547363,2226.115723 2109.304443,2221.743652 2112.259766,2218.445312 
	C2156.976318,2168.537842 2211.439209,2136.793701 2278.592285,2127.191650 
	C2324.990967,2120.556885 2368.745850,2128.716064 2412.901367,2146.515625 
z"/>
<path fill="#C69680" opacity="1.000000" stroke="none" 
	d="
M2388.505127,1259.495361 
	C2397.996582,1269.652222 2408.136230,1277.375122 2414.510254,1287.316528 
	C2412.631592,1295.840576 2406.645508,1299.497925 2402.147949,1304.190552 
	C2389.718750,1317.158936 2376.590576,1329.485596 2364.596680,1342.836792 
	C2346.737061,1362.717285 2332.102783,1384.940918 2319.814209,1408.692749 
	C2317.424805,1413.311646 2314.799561,1417.808716 2312.423340,1422.107788 
	C2306.822510,1421.381592 2307.693115,1417.223633 2306.756348,1414.468018 
	C2303.119873,1403.770020 2300.148926,1392.830078 2296.165283,1382.268677 
	C2284.692627,1351.851562 2266.757324,1325.777832 2242.738525,1303.802246 
	C2237.467285,1298.979492 2230.776367,1295.189819 2227.916748,1286.593506 
	C2229.658203,1283.833862 2231.196289,1280.080078 2233.835449,1277.417725 
	C2260.067627,1250.953857 2286.460205,1224.648926 2312.891846,1198.383545 
	C2314.687500,1196.599243 2317.161133,1195.497192 2320.061035,1193.589966 
	C2333.777344,1202.486694 2343.583008,1215.200195 2354.982422,1226.087280 
	C2366.047607,1236.655029 2376.681396,1247.674194 2388.505127,1259.495361 
z"/>
<path fill="#C69680" opacity="1.000000" stroke="none" 
	d="
M2806.590576,1305.432373 
	C2801.346436,1299.477783 2795.228027,1295.975342 2793.197266,1287.810303 
	C2795.517090,1284.774536 2797.876953,1280.783325 2801.073730,1277.645142 
	C2828.984619,1250.247925 2855.538574,1221.434692 2885.232178,1194.927734 
	C2889.457520,1197.300293 2893.399170,1198.546631 2896.016357,1201.132812 
	C2922.500000,1227.302246 2948.789307,1253.668457 2975.046875,1280.065430 
	C2976.845215,1281.873291 2977.951172,1284.369629 2979.975098,1287.454102 
	C2977.010986,1291.043701 2974.628906,1295.042358 2971.253418,1297.844238 
	C2937.345459,1325.989746 2916.479248,1362.370605 2903.579346,1403.890503 
	C2901.883057,1409.350952 2899.840820,1414.703979 2897.310547,1421.967285 
	C2888.378662,1413.674683 2885.748047,1403.766602 2880.347900,1395.775635 
	C2875.142334,1388.072144 2870.739014,1379.820312 2865.430908,1372.193848 
	C2859.742676,1364.020752 2853.631348,1356.113525 2847.293701,1348.429199 
	C2841.380859,1341.260376 2835.075195,1334.397705 2828.673828,1327.655273 
	C2821.808838,1320.424927 2814.630371,1313.491943 2806.590576,1305.432373 
z"/>
</svg>